<svg version="1.1" xmlns="http://www.w3.org/2000/svg" width="119" height="104" data-reactroot=""><path d="M5,52L5,52" class="stroke" fill="none"></path><path d="M5,52L15,52A5 5 0 0 0, 20,47L20,33.5A5 5 0 0 1, 25,28.5L40,28.5" class="stroke" fill="none"></path><path d="M114,52L104,52A5 5 0 0 1, 99,47L99,33.5A5 5 0 0 0, 94,28.5L79,28.5" class="stroke" fill="none"></path><path d="M40,28.5L40,28.5" class="stroke" fill="none"></path><path d="M79,28.5L79,28.5" class="stroke" fill="none"></path><path d="M5,52L15,52A5 5 0 0 1, 20,57L20,70.5A5 5 0 0 0, 25,75.5L40,75.5" class="stroke" fill="none"></path><path d="M114,52L104,52A5 5 0 0 0, 99,57L99,70.5A5 5 0 0 1, 94,75.5L79,75.5" class="stroke" fill="none"></path><path d="M40,75.5L40,75.5" class="stroke" fill="none"></path><path d="M79,75.5L79,75.5" class="stroke" fill="none"></path><path d="M114,52L114,52" class="stroke" fill="none"></path><g><g><rect x="5" y="5" width="109" height="94" class="transparent-fill none-stroke" rx="5" ry="5" stroke-dasharray="4,4"></rect></g></g><g><g><rect x="40" y="12.5" width="39" height="32" class="transparent-fill stroke" rx="5" ry="5"></rect><text x="40" y="12.5" font-size="16" dy="23.5" dx="19.5" class="text" text-anchor="middle"><tspan class="quote">`</tspan><tspan>a</tspan><tspan class="quote">`</tspan></text></g></g><g><g><rect x="40" y="59.5" width="39" height="32" class="transparent-fill stroke" rx="5" ry="5"></rect><text x="40" y="59.5" font-size="16" dy="23.5" dx="19.5" class="text" text-anchor="middle"><tspan class="quote">`</tspan><tspan>b</tspan><tspan class="quote">`</tspan></text></g></g></svg>