<svg version="1.1" xmlns="http://www.w3.org/2000/svg" width="993" height="311" data-reactroot=""><path d="M15,155.5L40,155.5" class="stroke" fill="none"></path><path d="M40,155.5L67,155.5" class="stroke" fill="none"></path><path d="M115,155.5L142,155.5" class="stroke" fill="none"></path><path d="M224,155.5L249,155.5" class="stroke" fill="none"></path><path d="M284,155.5L309,155.5" class="stroke" fill="none"></path><path d="M309,155.5L334,155.5" class="stroke" fill="none"></path><path d="M334,155.5L344,155.5A5 5 0 0 0, 349,150.5L349,127A5 5 0 0 1, 354,122L369,122" class="stroke" fill="none"></path><path d="M369,122L369,122" class="stroke" fill="none"></path><path d="M408,122L433,122" class="stroke" fill="none"></path><path d="M504,122L504,122" class="stroke" fill="none"></path><path d="M539,155.5L529,155.5A5 5 0 0 1, 524,150.5L524,127A5 5 0 0 0, 519,122L504,122" class="stroke" fill="none"></path><path d="M334,155.5L344,155.5A5 5 0 0 1, 349,160.5L349,184A5 5 0 0 0, 354,189L369,189" class="stroke" fill="none"></path><path d="M369,189L369,189" class="stroke" fill="none"></path><path d="M408,189L433,189" class="stroke" fill="none"></path><path d="M504,189L504,189" class="stroke" fill="none"></path><path d="M539,155.5L529,155.5A5 5 0 0 0, 524,160.5L524,184A5 5 0 0 1, 519,189L504,189" class="stroke" fill="none"></path><path d="M539,155.5L564,155.5" class="stroke" fill="none"></path><path d="M564,155.5L589,155.5" class="stroke" fill="none"></path><path d="M624,155.5L649,155.5" class="stroke" fill="none"></path><path d="M649,155.5L674,155.5" class="stroke" fill="none"></path><path d="M674,155.5L684,155.5A5 5 0 0 0, 689,150.5L689,93.5A5 5 0 0 1, 694,88.5L709,88.5" class="stroke" fill="none"></path><path d="M709,88.5L721,88.5" class="stroke" fill="none"></path><path d="M760,88.5L785,88.5" class="stroke" fill="none"></path><path d="M856,88.5L868,88.5" class="stroke" fill="none"></path><path d="M903,155.5L893,155.5A5 5 0 0 1, 888,150.5L888,93.5A5 5 0 0 0, 883,88.5L868,88.5" class="stroke" fill="none"></path><path d="M674,155.5L709,155.5" class="stroke" fill="none"></path><path d="M709,155.5L711,155.5" class="stroke" fill="none"></path><path d="M759,155.5L786,155.5" class="stroke" fill="none"></path><path d="M868,155.5L868,155.5" class="stroke" fill="none"></path><path d="M868,155.5L903,155.5" class="stroke" fill="none"></path><path d="M674,155.5L684,155.5A5 5 0 0 1, 689,160.5L689,217.5A5 5 0 0 0, 694,222.5L709,222.5" class="stroke" fill="none"></path><path d="M709,222.5L730.5,222.5" class="stroke" fill="none"></path><path d="M769.5,222.5L796.5,222.5" class="stroke" fill="none"></path><path d="M844.5,222.5L868,222.5" class="stroke" fill="none"></path><path d="M903,155.5L893,155.5A5 5 0 0 0, 888,160.5L888,217.5A5 5 0 0 1, 883,222.5L868,222.5" class="stroke" fill="none"></path><path d="M903,155.5L928,155.5" class="stroke" fill="none"></path><path d="M928,155.5L953,155.5" class="stroke" fill="none"></path><path d="M953,155.5L978,155.5" class="stroke" fill="none"></path><g><g><rect x="5" y="150.5" width="10" height="10" class="transparent-fill stroke" rx="10" ry="10"></rect></g></g><g><g><rect x="40" y="15" width="913" height="281" class="transparent-fill second-stroke" rx="5" ry="5"></rect><text x="496.5" y="15" font-size="12" text-anchor="middle" dy="-6" class="text">Group #1</text></g></g><g><g><rect x="67" y="139.5" width="48" height="32" class="transparent-fill stroke" rx="5" ry="5"></rect><text x="67" y="139.5" font-size="16" dy="23.5" dx="24" class="text" text-anchor="middle"><tspan class="quote">`</tspan><tspan>12</tspan><tspan class="quote">`</tspan></text><text x="91" y="139.5" font-size="12" text-anchor="middle" dy="-6" class="text">One of</text></g></g><g><g><rect x="142" y="139.5" width="82" height="32" class="transparent-fill stroke" rx="5" ry="5"></rect><g fill="none" class="thin-stroke" transform="translate(165.5 175.5)"><path d="M18 1l3 3-3 3"></path><path d="M6 15l-3-3 3-3"></path><path d="M3 9V7a3 3 0 0 13-3h14" stroke-dasharray=""></path><path d="M21 7v2a3 3 0 0 1-3 3H3" stroke-dasharray=""></path></g><text x="142" y="171.5" class="text" font-size="12" dx="51.5" dy="16" pointer-events="none">3</text><text x="142" y="139.5" font-size="16" dy="23.5" dx="41" class="text" text-anchor="middle"><tspan>Any digit</tspan></text></g></g><g><g><rect x="249" y="139.5" width="35" height="32" class="transparent-fill stroke" rx="5" ry="5"></rect><text x="249" y="139.5" font-size="16" dy="23.5" dx="17.5" class="text" text-anchor="middle"><tspan class="quote">`</tspan><tspan>-</tspan><tspan class="quote">`</tspan></text></g></g><g><g><rect x="309" y="73.5" width="255" height="164" class="transparent-fill second-stroke" rx="5" ry="5"></rect><text x="436.5" y="73.5" font-size="12" text-anchor="middle" dy="-6" class="text">Group #2</text></g></g><g><g><rect x="334" y="88.5" width="205" height="134" class="transparent-fill none-stroke" rx="5" ry="5" stroke-dasharray="4,4"></rect></g></g><g><g><rect x="369" y="106" width="39" height="32" class="transparent-fill stroke" rx="5" ry="5"></rect><text x="369" y="106" font-size="16" dy="23.5" dx="19.5" class="text" text-anchor="middle"><tspan class="quote">`</tspan><tspan>0</tspan><tspan class="quote">`</tspan></text></g></g><g><g><rect x="433" y="106" width="71" height="32" class="transparent-fill stroke" rx="5" ry="5"></rect><text x="433" y="106" font-size="16" dy="23.5" dx="35.5" class="text" text-anchor="middle"><tspan class="quote">`</tspan><tspan>1</tspan><tspan class="quote">`</tspan><tspan class="quote"> - </tspan><tspan class="quote">`</tspan><tspan>9</tspan><tspan class="quote">`</tspan></text><text x="468.5" y="106" font-size="12" text-anchor="middle" dy="-6" class="text">One of</text></g></g><g><g><rect x="369" y="173" width="39" height="32" class="transparent-fill stroke" rx="5" ry="5"></rect><text x="369" y="173" font-size="16" dy="23.5" dx="19.5" class="text" text-anchor="middle"><tspan class="quote">`</tspan><tspan>1</tspan><tspan class="quote">`</tspan></text></g></g><g><g><rect x="433" y="173" width="71" height="32" class="transparent-fill stroke" rx="5" ry="5"></rect><text x="433" y="173" font-size="16" dy="23.5" dx="35.5" class="text" text-anchor="middle"><tspan class="quote">`</tspan><tspan>0</tspan><tspan class="quote">`</tspan><tspan class="quote"> - </tspan><tspan class="quote">`</tspan><tspan>2</tspan><tspan class="quote">`</tspan></text><text x="468.5" y="173" font-size="12" text-anchor="middle" dy="-6" class="text">One of</text></g></g><g><g><rect x="589" y="139.5" width="35" height="32" class="transparent-fill stroke" rx="5" ry="5"></rect><text x="589" y="139.5" font-size="16" dy="23.5" dx="17.5" class="text" text-anchor="middle"><tspan class="quote">`</tspan><tspan>-</tspan><tspan class="quote">`</tspan></text></g></g><g><g><rect x="649" y="40" width="279" height="231" class="transparent-fill second-stroke" rx="5" ry="5"></rect><text x="788.5" y="40" font-size="12" text-anchor="middle" dy="-6" class="text">Group #3</text></g></g><g><g><rect x="674" y="55" width="229" height="201" class="transparent-fill none-stroke" rx="5" ry="5" stroke-dasharray="4,4"></rect></g></g><g><g><rect x="721" y="72.5" width="39" height="32" class="transparent-fill stroke" rx="5" ry="5"></rect><text x="721" y="72.5" font-size="16" dy="23.5" dx="19.5" class="text" text-anchor="middle"><tspan class="quote">`</tspan><tspan>0</tspan><tspan class="quote">`</tspan></text></g></g><g><g><rect x="785" y="72.5" width="71" height="32" class="transparent-fill stroke" rx="5" ry="5"></rect><text x="785" y="72.5" font-size="16" dy="23.5" dx="35.5" class="text" text-anchor="middle"><tspan class="quote">`</tspan><tspan>1</tspan><tspan class="quote">`</tspan><tspan class="quote"> - </tspan><tspan class="quote">`</tspan><tspan>9</tspan><tspan class="quote">`</tspan></text><text x="820.5" y="72.5" font-size="12" text-anchor="middle" dy="-6" class="text">One of</text></g></g><g><g><rect x="711" y="139.5" width="48" height="32" class="transparent-fill stroke" rx="5" ry="5"></rect><text x="711" y="139.5" font-size="16" dy="23.5" dx="24" class="text" text-anchor="middle"><tspan class="quote">`</tspan><tspan>12</tspan><tspan class="quote">`</tspan></text><text x="735" y="139.5" font-size="12" text-anchor="middle" dy="-6" class="text">One of</text></g></g><g><g><rect x="786" y="139.5" width="82" height="32" class="transparent-fill stroke" rx="5" ry="5"></rect><text x="786" y="139.5" font-size="16" dy="23.5" dx="41" class="text" text-anchor="middle"><tspan>Any digit</tspan></text></g></g><g><g><rect x="730.5" y="206.5" width="39" height="32" class="transparent-fill stroke" rx="5" ry="5"></rect><text x="730.5" y="206.5" font-size="16" dy="23.5" dx="19.5" class="text" text-anchor="middle"><tspan class="quote">`</tspan><tspan>3</tspan><tspan class="quote">`</tspan></text></g></g><g><g><rect x="796.5" y="206.5" width="48" height="32" class="transparent-fill stroke" rx="5" ry="5"></rect><text x="796.5" y="206.5" font-size="16" dy="23.5" dx="24" class="text" text-anchor="middle"><tspan class="quote">`</tspan><tspan>01</tspan><tspan class="quote">`</tspan></text><text x="820.5" y="206.5" font-size="12" text-anchor="middle" dy="-6" class="text">One of</text></g></g><g><g><rect x="978" y="150.5" width="10" height="10" class="transparent-fill stroke" rx="10" ry="10"></rect></g></g></svg>