<svg version="1.1" xmlns="http://www.w3.org/2000/svg" width="873" height="261" data-reactroot=""><path d="M5,130.5L7,130.5" class="stroke" fill="none"></path><path d="M55,130.5L82,130.5" class="stroke" fill="none"></path><path d="M164,130.5L189,130.5" class="stroke" fill="none"></path><path d="M224,130.5L249,130.5" class="stroke" fill="none"></path><path d="M249,130.5L274,130.5" class="stroke" fill="none"></path><path d="M274,130.5L284,130.5A5 5 0 0 0, 289,125.5L289,102A5 5 0 0 1, 294,97L309,97" class="stroke" fill="none"></path><path d="M479,130.5L469,130.5A5 5 0 0 1, 464,125.5L464,102A5 5 0 0 0, 459,97L444,97" class="stroke" fill="none"></path><path d="M309,97L309,97" class="stroke" fill="none"></path><path d="M348,97L373,97" class="stroke" fill="none"></path><path d="M444,97L444,97" class="stroke" fill="none"></path><path d="M274,130.5L284,130.5A5 5 0 0 1, 289,135.5L289,159A5 5 0 0 0, 294,164L309,164" class="stroke" fill="none"></path><path d="M479,130.5L469,130.5A5 5 0 0 0, 464,135.5L464,159A5 5 0 0 1, 459,164L444,164" class="stroke" fill="none"></path><path d="M309,164L309,164" class="stroke" fill="none"></path><path d="M348,164L373,164" class="stroke" fill="none"></path><path d="M444,164L444,164" class="stroke" fill="none"></path><path d="M479,130.5L504,130.5" class="stroke" fill="none"></path><path d="M504,130.5L529,130.5" class="stroke" fill="none"></path><path d="M564,130.5L589,130.5" class="stroke" fill="none"></path><path d="M589,130.5L614,130.5" class="stroke" fill="none"></path><path d="M614,130.5L624,130.5A5 5 0 0 0, 629,125.5L629,68.5A5 5 0 0 1, 634,63.5L649,63.5" class="stroke" fill="none"></path><path d="M843,130.5L833,130.5A5 5 0 0 1, 828,125.5L828,68.5A5 5 0 0 0, 823,63.5L808,63.5" class="stroke" fill="none"></path><path d="M649,63.5L661,63.5" class="stroke" fill="none"></path><path d="M700,63.5L725,63.5" class="stroke" fill="none"></path><path d="M796,63.5L808,63.5" class="stroke" fill="none"></path><path d="M614,130.5L649,130.5" class="stroke" fill="none"></path><path d="M808,130.5L843,130.5" class="stroke" fill="none"></path><path d="M649,130.5L651,130.5" class="stroke" fill="none"></path><path d="M699,130.5L726,130.5" class="stroke" fill="none"></path><path d="M808,130.5L808,130.5" class="stroke" fill="none"></path><path d="M614,130.5L624,130.5A5 5 0 0 1, 629,135.5L629,192.5A5 5 0 0 0, 634,197.5L649,197.5" class="stroke" fill="none"></path><path d="M843,130.5L833,130.5A5 5 0 0 0, 828,135.5L828,192.5A5 5 0 0 1, 823,197.5L808,197.5" class="stroke" fill="none"></path><path d="M649,197.5L670.5,197.5" class="stroke" fill="none"></path><path d="M709.5,197.5L736.5,197.5" class="stroke" fill="none"></path><path d="M784.5,197.5L808,197.5" class="stroke" fill="none"></path><path d="M843,130.5L868,130.5" class="stroke" fill="none"></path><path d="M868,130.5L868,130.5" class="stroke" fill="none"></path><g><g><rect x="7" y="114.5" width="48" height="32" class="transparent-fill stroke" rx="5" ry="5"></rect><text x="7" y="114.5" font-size="16" dy="23.5" dx="24" class="text" text-anchor="middle"><tspan class="quote">`</tspan><tspan>12</tspan><tspan class="quote">`</tspan></text><text x="31" y="114.5" font-size="12" text-anchor="middle" dy="-6" class="text">One of</text></g></g><g><g><rect x="82" y="114.5" width="82" height="32" class="transparent-fill stroke" rx="5" ry="5"></rect><g fill="none" class="thin-stroke" transform="translate(105.5 150.5)"><path d="M18 1l3 3-3 3"></path><path d="M6 15l-3-3 3-3"></path><path d="M3 9V7a3 3 0 0 13-3h14" stroke-dasharray=""></path><path d="M21 7v2a3 3 0 0 1-3 3H3" stroke-dasharray=""></path></g><text x="82" y="146.5" class="text" font-size="12" dx="51.5" dy="16" pointer-events="none">3</text><text x="82" y="114.5" font-size="16" dy="23.5" dx="41" class="text" text-anchor="middle"><tspan>Any digit</tspan></text></g></g><g><g><rect x="189" y="114.5" width="35" height="32" class="transparent-fill stroke" rx="5" ry="5"></rect><text x="189" y="114.5" font-size="16" dy="23.5" dx="17.5" class="text" text-anchor="middle"><tspan class="quote">`</tspan><tspan>-</tspan><tspan class="quote">`</tspan></text></g></g><g><g><rect x="249" y="48.5" width="255" height="164" class="transparent-fill second-stroke" rx="5" ry="5"></rect><text x="376.5" y="48.5" font-size="12" text-anchor="middle" dy="-6" class="text">Group #1</text></g></g><g><g><rect x="274" y="63.5" width="205" height="134" class="transparent-fill none-stroke" rx="5" ry="5" stroke-dasharray="4,4"></rect></g></g><g><g><rect x="309" y="81" width="39" height="32" class="transparent-fill stroke" rx="5" ry="5"></rect><text x="309" y="81" font-size="16" dy="23.5" dx="19.5" class="text" text-anchor="middle"><tspan class="quote">`</tspan><tspan>0</tspan><tspan class="quote">`</tspan></text></g></g><g><g><rect x="373" y="81" width="71" height="32" class="transparent-fill stroke" rx="5" ry="5"></rect><text x="373" y="81" font-size="16" dy="23.5" dx="35.5" class="text" text-anchor="middle"><tspan class="quote">`</tspan><tspan>1</tspan><tspan class="quote">`</tspan><tspan class="quote"> - </tspan><tspan class="quote">`</tspan><tspan>9</tspan><tspan class="quote">`</tspan></text><text x="408.5" y="81" font-size="12" text-anchor="middle" dy="-6" class="text">One of</text></g></g><g><g><rect x="309" y="148" width="39" height="32" class="transparent-fill stroke" rx="5" ry="5"></rect><text x="309" y="148" font-size="16" dy="23.5" dx="19.5" class="text" text-anchor="middle"><tspan class="quote">`</tspan><tspan>1</tspan><tspan class="quote">`</tspan></text></g></g><g><g><rect x="373" y="148" width="71" height="32" class="transparent-fill stroke" rx="5" ry="5"></rect><text x="373" y="148" font-size="16" dy="23.5" dx="35.5" class="text" text-anchor="middle"><tspan class="quote">`</tspan><tspan>0</tspan><tspan class="quote">`</tspan><tspan class="quote"> - </tspan><tspan class="quote">`</tspan><tspan>2</tspan><tspan class="quote">`</tspan></text><text x="408.5" y="148" font-size="12" text-anchor="middle" dy="-6" class="text">One of</text></g></g><g><g><rect x="529" y="114.5" width="35" height="32" class="transparent-fill stroke" rx="5" ry="5"></rect><text x="529" y="114.5" font-size="16" dy="23.5" dx="17.5" class="text" text-anchor="middle"><tspan class="quote">`</tspan><tspan>-</tspan><tspan class="quote">`</tspan></text></g></g><g><g><rect x="589" y="15" width="279" height="231" class="transparent-fill second-stroke" rx="5" ry="5"></rect><text x="728.5" y="15" font-size="12" text-anchor="middle" dy="-6" class="text">Group #2</text></g></g><g><g><rect x="614" y="30" width="229" height="201" class="transparent-fill none-stroke" rx="5" ry="5" stroke-dasharray="4,4"></rect></g></g><g><g><rect x="661" y="47.5" width="39" height="32" class="transparent-fill stroke" rx="5" ry="5"></rect><text x="661" y="47.5" font-size="16" dy="23.5" dx="19.5" class="text" text-anchor="middle"><tspan class="quote">`</tspan><tspan>0</tspan><tspan class="quote">`</tspan></text></g></g><g><g><rect x="725" y="47.5" width="71" height="32" class="transparent-fill stroke" rx="5" ry="5"></rect><text x="725" y="47.5" font-size="16" dy="23.5" dx="35.5" class="text" text-anchor="middle"><tspan class="quote">`</tspan><tspan>1</tspan><tspan class="quote">`</tspan><tspan class="quote"> - </tspan><tspan class="quote">`</tspan><tspan>9</tspan><tspan class="quote">`</tspan></text><text x="760.5" y="47.5" font-size="12" text-anchor="middle" dy="-6" class="text">One of</text></g></g><g><g><rect x="651" y="114.5" width="48" height="32" class="transparent-fill stroke" rx="5" ry="5"></rect><text x="651" y="114.5" font-size="16" dy="23.5" dx="24" class="text" text-anchor="middle"><tspan class="quote">`</tspan><tspan>12</tspan><tspan class="quote">`</tspan></text><text x="675" y="114.5" font-size="12" text-anchor="middle" dy="-6" class="text">One of</text></g></g><g><g><rect x="726" y="114.5" width="82" height="32" class="transparent-fill stroke" rx="5" ry="5"></rect><text x="726" y="114.5" font-size="16" dy="23.5" dx="41" class="text" text-anchor="middle"><tspan>Any digit</tspan></text></g></g><g><g><rect x="670.5" y="181.5" width="39" height="32" class="transparent-fill stroke" rx="5" ry="5"></rect><text x="670.5" y="181.5" font-size="16" dy="23.5" dx="19.5" class="text" text-anchor="middle"><tspan class="quote">`</tspan><tspan>3</tspan><tspan class="quote">`</tspan></text></g></g><g><g><rect x="736.5" y="181.5" width="48" height="32" class="transparent-fill stroke" rx="5" ry="5"></rect><text x="736.5" y="181.5" font-size="16" dy="23.5" dx="24" class="text" text-anchor="middle"><tspan class="quote">`</tspan><tspan>01</tspan><tspan class="quote">`</tspan></text><text x="760.5" y="181.5" font-size="12" text-anchor="middle" dy="-6" class="text">One of</text></g></g></svg>