<svg version="1.1" xmlns="http://www.w3.org/2000/svg" width="993" height="353" data-reactroot=""><path d="M15,176.5L40,176.5" class="stroke" fill="none"></path><path d="M40,176.5L71.5,176.5" class="stroke" fill="none"></path><path d="M110.5,176.5L142,176.5" class="stroke" fill="none"></path><path d="M224,176.5L249,176.5" class="stroke" fill="none"></path><path d="M284,176.5L309,176.5" class="stroke" fill="none"></path><path d="M309,176.5L334,176.5" class="stroke" fill="none"></path><path d="M334,176.5L344,176.5A5 5 0 0 0, 349,171.5L349,148A5 5 0 0 1, 354,143L369,143" class="stroke" fill="none"></path><path d="M369,143L369,143" class="stroke" fill="none"></path><path d="M408,143L433,143" class="stroke" fill="none"></path><path d="M504,143L504,143" class="stroke" fill="none"></path><path d="M539,176.5L529,176.5A5 5 0 0 1, 524,171.5L524,148A5 5 0 0 0, 519,143L504,143" class="stroke" fill="none"></path><path d="M334,176.5L344,176.5A5 5 0 0 1, 349,181.5L349,205A5 5 0 0 0, 354,210L369,210" class="stroke" fill="none"></path><path d="M369,210L369,210" class="stroke" fill="none"></path><path d="M408,210L433,210" class="stroke" fill="none"></path><path d="M504,210L504,210" class="stroke" fill="none"></path><path d="M539,176.5L529,176.5A5 5 0 0 0, 524,181.5L524,205A5 5 0 0 1, 519,210L504,210" class="stroke" fill="none"></path><path d="M539,176.5L564,176.5" class="stroke" fill="none"></path><path d="M564,176.5L589,176.5" class="stroke" fill="none"></path><path d="M624,176.5L649,176.5" class="stroke" fill="none"></path><path d="M649,176.5L674,176.5" class="stroke" fill="none"></path><path d="M674,176.5L684,176.5A5 5 0 0 0, 689,171.5L689,93.5A5 5 0 0 1, 694,88.5L709,88.5" class="stroke" fill="none"></path><path d="M709,88.5L721,88.5" class="stroke" fill="none"></path><path d="M760,88.5L785,88.5" class="stroke" fill="none"></path><path d="M856,88.5L868,88.5" class="stroke" fill="none"></path><path d="M903,176.5L893,176.5A5 5 0 0 1, 888,171.5L888,93.5A5 5 0 0 0, 883,88.5L868,88.5" class="stroke" fill="none"></path><path d="M674,176.5L684,176.5A5 5 0 0 0, 689,171.5L689,171A5 5 0 0 1, 694,166L709,166" class="stroke" fill="none"></path><path d="M709,166L715.5,166" class="stroke" fill="none"></path><path d="M754.5,166L786,166" class="stroke" fill="none"></path><path d="M868,166L868,166" class="stroke" fill="none"></path><path d="M903,176.5L893,176.5A5 5 0 0 1, 888,171.5L888,171A5 5 0 0 0, 883,166L868,166" class="stroke" fill="none"></path><path d="M674,176.5L684,176.5A5 5 0 0 1, 689,181.5L689,249A5 5 0 0 0, 694,254L709,254" class="stroke" fill="none"></path><path d="M709,254L730.5,254" class="stroke" fill="none"></path><path d="M769.5,254L801,254" class="stroke" fill="none"></path><path d="M840,254L868,254" class="stroke" fill="none"></path><path d="M903,176.5L893,176.5A5 5 0 0 0, 888,181.5L888,249A5 5 0 0 1, 883,254L868,254" class="stroke" fill="none"></path><path d="M903,176.5L928,176.5" class="stroke" fill="none"></path><path d="M928,176.5L953,176.5" class="stroke" fill="none"></path><path d="M953,176.5L978,176.5" class="stroke" fill="none"></path><g><g><rect x="5" y="171.5" width="10" height="10" class="transparent-fill stroke" rx="10" ry="10"></rect></g></g><g><g><rect x="40" y="15" width="913" height="323" class="transparent-fill second-stroke" rx="5" ry="5"></rect><text x="496.5" y="15" font-size="12" text-anchor="middle" dy="-6" class="text">Group #1</text></g></g><g><g><rect x="71.5" y="150" width="39" height="53" class="transparent-fill stroke" rx="5" ry="5"></rect><text x="71.5" y="150" font-size="16" dy="23.5" dx="19.5" class="text" text-anchor="middle"><tspan class="quote">`</tspan><tspan>1</tspan><tspan class="quote">`</tspan></text><text x="71.5" y="150" font-size="16" dy="44.5" dx="19.5" class="text" text-anchor="middle"><tspan class="quote">`</tspan><tspan>2</tspan><tspan class="quote">`</tspan></text><text x="91" y="150" font-size="12" text-anchor="middle" dy="-6" class="text">One of</text></g></g><g><g><rect x="142" y="160.5" width="82" height="32" class="transparent-fill stroke" rx="5" ry="5"></rect><g fill="none" class="thin-stroke" transform="translate(165.5 196.5)"><path d="M18 1l3 3-3 3"></path><path d="M6 15l-3-3 3-3"></path><path d="M3 9V7a3 3 0 0 13-3h14" stroke-dasharray=""></path><path d="M21 7v2a3 3 0 0 1-3 3H3" stroke-dasharray=""></path></g><text x="142" y="192.5" class="text" font-size="12" dx="51.5" dy="16" pointer-events="none">3</text><text x="142" y="160.5" font-size="16" dy="23.5" dx="41" class="text" text-anchor="middle"><tspan>Any digit</tspan></text></g></g><g><g><rect x="249" y="160.5" width="35" height="32" class="transparent-fill stroke" rx="5" ry="5"></rect><text x="249" y="160.5" font-size="16" dy="23.5" dx="17.5" class="text" text-anchor="middle"><tspan class="quote">`</tspan><tspan>-</tspan><tspan class="quote">`</tspan></text></g></g><g><g><rect x="309" y="94.5" width="255" height="164" class="transparent-fill second-stroke" rx="5" ry="5"></rect><text x="436.5" y="94.5" font-size="12" text-anchor="middle" dy="-6" class="text">Group #2</text></g></g><g><g><rect x="334" y="109.5" width="205" height="134" class="transparent-fill none-stroke" rx="5" ry="5" stroke-dasharray="4,4"></rect></g></g><g><g><rect x="369" y="127" width="39" height="32" class="transparent-fill stroke" rx="5" ry="5"></rect><text x="369" y="127" font-size="16" dy="23.5" dx="19.5" class="text" text-anchor="middle"><tspan class="quote">`</tspan><tspan>0</tspan><tspan class="quote">`</tspan></text></g></g><g><g><rect x="433" y="127" width="71" height="32" class="transparent-fill stroke" rx="5" ry="5"></rect><text x="433" y="127" font-size="16" dy="23.5" dx="35.5" class="text" text-anchor="middle"><tspan class="quote">`</tspan><tspan>1</tspan><tspan class="quote">`</tspan><tspan class="quote"> - </tspan><tspan class="quote">`</tspan><tspan>9</tspan><tspan class="quote">`</tspan></text><text x="468.5" y="127" font-size="12" text-anchor="middle" dy="-6" class="text">One of</text></g></g><g><g><rect x="369" y="194" width="39" height="32" class="transparent-fill stroke" rx="5" ry="5"></rect><text x="369" y="194" font-size="16" dy="23.5" dx="19.5" class="text" text-anchor="middle"><tspan class="quote">`</tspan><tspan>1</tspan><tspan class="quote">`</tspan></text></g></g><g><g><rect x="433" y="194" width="71" height="32" class="transparent-fill stroke" rx="5" ry="5"></rect><text x="433" y="194" font-size="16" dy="23.5" dx="35.5" class="text" text-anchor="middle"><tspan class="quote">`</tspan><tspan>0</tspan><tspan class="quote">`</tspan><tspan class="quote"> - </tspan><tspan class="quote">`</tspan><tspan>2</tspan><tspan class="quote">`</tspan></text><text x="468.5" y="194" font-size="12" text-anchor="middle" dy="-6" class="text">One of</text></g></g><g><g><rect x="589" y="160.5" width="35" height="32" class="transparent-fill stroke" rx="5" ry="5"></rect><text x="589" y="160.5" font-size="16" dy="23.5" dx="17.5" class="text" text-anchor="middle"><tspan class="quote">`</tspan><tspan>-</tspan><tspan class="quote">`</tspan></text></g></g><g><g><rect x="649" y="40" width="279" height="273" class="transparent-fill second-stroke" rx="5" ry="5"></rect><text x="788.5" y="40" font-size="12" text-anchor="middle" dy="-6" class="text">Group #3</text></g></g><g><g><rect x="674" y="55" width="229" height="243" class="transparent-fill none-stroke" rx="5" ry="5" stroke-dasharray="4,4"></rect></g></g><g><g><rect x="721" y="72.5" width="39" height="32" class="transparent-fill stroke" rx="5" ry="5"></rect><text x="721" y="72.5" font-size="16" dy="23.5" dx="19.5" class="text" text-anchor="middle"><tspan class="quote">`</tspan><tspan>0</tspan><tspan class="quote">`</tspan></text></g></g><g><g><rect x="785" y="72.5" width="71" height="32" class="transparent-fill stroke" rx="5" ry="5"></rect><text x="785" y="72.5" font-size="16" dy="23.5" dx="35.5" class="text" text-anchor="middle"><tspan class="quote">`</tspan><tspan>1</tspan><tspan class="quote">`</tspan><tspan class="quote"> - </tspan><tspan class="quote">`</tspan><tspan>9</tspan><tspan class="quote">`</tspan></text><text x="820.5" y="72.5" font-size="12" text-anchor="middle" dy="-6" class="text">One of</text></g></g><g><g><rect x="715.5" y="139.5" width="39" height="53" class="transparent-fill stroke" rx="5" ry="5"></rect><text x="715.5" y="139.5" font-size="16" dy="23.5" dx="19.5" class="text" text-anchor="middle"><tspan class="quote">`</tspan><tspan>1</tspan><tspan class="quote">`</tspan></text><text x="715.5" y="139.5" font-size="16" dy="44.5" dx="19.5" class="text" text-anchor="middle"><tspan class="quote">`</tspan><tspan>2</tspan><tspan class="quote">`</tspan></text><text x="735" y="139.5" font-size="12" text-anchor="middle" dy="-6" class="text">One of</text></g></g><g><g><rect x="786" y="150" width="82" height="32" class="transparent-fill stroke" rx="5" ry="5"></rect><text x="786" y="150" font-size="16" dy="23.5" dx="41" class="text" text-anchor="middle"><tspan>Any digit</tspan></text></g></g><g><g><rect x="730.5" y="238" width="39" height="32" class="transparent-fill stroke" rx="5" ry="5"></rect><text x="730.5" y="238" font-size="16" dy="23.5" dx="19.5" class="text" text-anchor="middle"><tspan class="quote">`</tspan><tspan>3</tspan><tspan class="quote">`</tspan></text></g></g><g><g><rect x="801" y="227.5" width="39" height="53" class="transparent-fill stroke" rx="5" ry="5"></rect><text x="801" y="227.5" font-size="16" dy="23.5" dx="19.5" class="text" text-anchor="middle"><tspan class="quote">`</tspan><tspan>0</tspan><tspan class="quote">`</tspan></text><text x="801" y="227.5" font-size="16" dy="44.5" dx="19.5" class="text" text-anchor="middle"><tspan class="quote">`</tspan><tspan>1</tspan><tspan class="quote">`</tspan></text><text x="820.5" y="227.5" font-size="12" text-anchor="middle" dy="-6" class="text">One of</text></g></g><g><g><rect x="978" y="171.5" width="10" height="10" class="transparent-fill stroke" rx="10" ry="10"></rect></g></g></svg>