<svg version="1.1" xmlns="http://www.w3.org/2000/svg" width="943" height="261" data-reactroot=""><path d="M15,130.5L42,130.5" class="stroke" fill="none"></path><path d="M90,130.5L117,130.5" class="stroke" fill="none"></path><path d="M199,130.5L224,130.5" class="stroke" fill="none"></path><path d="M259,130.5L284,130.5" class="stroke" fill="none"></path><path d="M284,130.5L309,130.5" class="stroke" fill="none"></path><path d="M309,130.5L319,130.5A5 5 0 0 0, 324,125.5L324,102A5 5 0 0 1, 329,97L344,97" class="stroke" fill="none"></path><path d="M514,130.5L504,130.5A5 5 0 0 1, 499,125.5L499,102A5 5 0 0 0, 494,97L479,97" class="stroke" fill="none"></path><path d="M344,97L344,97" class="stroke" fill="none"></path><path d="M383,97L408,97" class="stroke" fill="none"></path><path d="M479,97L479,97" class="stroke" fill="none"></path><path d="M309,130.5L319,130.5A5 5 0 0 1, 324,135.5L324,159A5 5 0 0 0, 329,164L344,164" class="stroke" fill="none"></path><path d="M514,130.5L504,130.5A5 5 0 0 0, 499,135.5L499,159A5 5 0 0 1, 494,164L479,164" class="stroke" fill="none"></path><path d="M344,164L344,164" class="stroke" fill="none"></path><path d="M383,164L408,164" class="stroke" fill="none"></path><path d="M479,164L479,164" class="stroke" fill="none"></path><path d="M514,130.5L539,130.5" class="stroke" fill="none"></path><path d="M539,130.5L564,130.5" class="stroke" fill="none"></path><path d="M599,130.5L624,130.5" class="stroke" fill="none"></path><path d="M624,130.5L649,130.5" class="stroke" fill="none"></path><path d="M649,130.5L659,130.5A5 5 0 0 0, 664,125.5L664,68.5A5 5 0 0 1, 669,63.5L684,63.5" class="stroke" fill="none"></path><path d="M878,130.5L868,130.5A5 5 0 0 1, 863,125.5L863,68.5A5 5 0 0 0, 858,63.5L843,63.5" class="stroke" fill="none"></path><path d="M684,63.5L696,63.5" class="stroke" fill="none"></path><path d="M735,63.5L760,63.5" class="stroke" fill="none"></path><path d="M831,63.5L843,63.5" class="stroke" fill="none"></path><path d="M649,130.5L684,130.5" class="stroke" fill="none"></path><path d="M843,130.5L878,130.5" class="stroke" fill="none"></path><path d="M684,130.5L686,130.5" class="stroke" fill="none"></path><path d="M734,130.5L761,130.5" class="stroke" fill="none"></path><path d="M843,130.5L843,130.5" class="stroke" fill="none"></path><path d="M649,130.5L659,130.5A5 5 0 0 1, 664,135.5L664,192.5A5 5 0 0 0, 669,197.5L684,197.5" class="stroke" fill="none"></path><path d="M878,130.5L868,130.5A5 5 0 0 0, 863,135.5L863,192.5A5 5 0 0 1, 858,197.5L843,197.5" class="stroke" fill="none"></path><path d="M684,197.5L705.5,197.5" class="stroke" fill="none"></path><path d="M744.5,197.5L771.5,197.5" class="stroke" fill="none"></path><path d="M819.5,197.5L843,197.5" class="stroke" fill="none"></path><path d="M878,130.5L903,130.5" class="stroke" fill="none"></path><path d="M903,130.5L928,130.5" class="stroke" fill="none"></path><g><g><rect x="5" y="125.5" width="10" height="10" class="transparent-fill stroke" rx="10" ry="10"></rect></g></g><g><g><rect x="42" y="114.5" width="48" height="32" class="transparent-fill stroke" rx="5" ry="5"></rect><text x="42" y="114.5" font-size="16" dy="23.5" dx="24" class="text" text-anchor="middle"><tspan class="quote">`</tspan><tspan>12</tspan><tspan class="quote">`</tspan></text><text x="66" y="114.5" font-size="12" text-anchor="middle" dy="-6" class="text">One of</text></g></g><g><g><rect x="117" y="114.5" width="82" height="32" class="transparent-fill stroke" rx="5" ry="5"></rect><g fill="none" class="thin-stroke" transform="translate(140.5 150.5)"><path d="M18 1l3 3-3 3"></path><path d="M6 15l-3-3 3-3"></path><path d="M3 9V7a3 3 0 0 13-3h14" stroke-dasharray=""></path><path d="M21 7v2a3 3 0 0 1-3 3H3" stroke-dasharray=""></path></g><text x="117" y="146.5" class="text" font-size="12" dx="51.5" dy="16" pointer-events="none">3</text><text x="117" y="114.5" font-size="16" dy="23.5" dx="41" class="text" text-anchor="middle"><tspan>Any digit</tspan></text></g></g><g><g><rect x="224" y="114.5" width="35" height="32" class="transparent-fill stroke" rx="5" ry="5"></rect><text x="224" y="114.5" font-size="16" dy="23.5" dx="17.5" class="text" text-anchor="middle"><tspan class="quote">`</tspan><tspan>-</tspan><tspan class="quote">`</tspan></text></g></g><g><g><rect x="284" y="48.5" width="255" height="164" class="transparent-fill second-stroke" rx="5" ry="5"></rect><text x="411.5" y="48.5" font-size="12" text-anchor="middle" dy="-6" class="text">Group #1</text></g></g><g><g><rect x="309" y="63.5" width="205" height="134" class="transparent-fill none-stroke" rx="5" ry="5" stroke-dasharray="4,4"></rect></g></g><g><g><rect x="344" y="81" width="39" height="32" class="transparent-fill stroke" rx="5" ry="5"></rect><text x="344" y="81" font-size="16" dy="23.5" dx="19.5" class="text" text-anchor="middle"><tspan class="quote">`</tspan><tspan>0</tspan><tspan class="quote">`</tspan></text></g></g><g><g><rect x="408" y="81" width="71" height="32" class="transparent-fill stroke" rx="5" ry="5"></rect><text x="408" y="81" font-size="16" dy="23.5" dx="35.5" class="text" text-anchor="middle"><tspan class="quote">`</tspan><tspan>1</tspan><tspan class="quote">`</tspan><tspan class="quote"> - </tspan><tspan class="quote">`</tspan><tspan>9</tspan><tspan class="quote">`</tspan></text><text x="443.5" y="81" font-size="12" text-anchor="middle" dy="-6" class="text">One of</text></g></g><g><g><rect x="344" y="148" width="39" height="32" class="transparent-fill stroke" rx="5" ry="5"></rect><text x="344" y="148" font-size="16" dy="23.5" dx="19.5" class="text" text-anchor="middle"><tspan class="quote">`</tspan><tspan>1</tspan><tspan class="quote">`</tspan></text></g></g><g><g><rect x="408" y="148" width="71" height="32" class="transparent-fill stroke" rx="5" ry="5"></rect><text x="408" y="148" font-size="16" dy="23.5" dx="35.5" class="text" text-anchor="middle"><tspan class="quote">`</tspan><tspan>0</tspan><tspan class="quote">`</tspan><tspan class="quote"> - </tspan><tspan class="quote">`</tspan><tspan>2</tspan><tspan class="quote">`</tspan></text><text x="443.5" y="148" font-size="12" text-anchor="middle" dy="-6" class="text">One of</text></g></g><g><g><rect x="564" y="114.5" width="35" height="32" class="transparent-fill stroke" rx="5" ry="5"></rect><text x="564" y="114.5" font-size="16" dy="23.5" dx="17.5" class="text" text-anchor="middle"><tspan class="quote">`</tspan><tspan>-</tspan><tspan class="quote">`</tspan></text></g></g><g><g><rect x="624" y="15" width="279" height="231" class="transparent-fill second-stroke" rx="5" ry="5"></rect><text x="763.5" y="15" font-size="12" text-anchor="middle" dy="-6" class="text">Group #2</text></g></g><g><g><rect x="649" y="30" width="229" height="201" class="transparent-fill none-stroke" rx="5" ry="5" stroke-dasharray="4,4"></rect></g></g><g><g><rect x="696" y="47.5" width="39" height="32" class="transparent-fill stroke" rx="5" ry="5"></rect><text x="696" y="47.5" font-size="16" dy="23.5" dx="19.5" class="text" text-anchor="middle"><tspan class="quote">`</tspan><tspan>0</tspan><tspan class="quote">`</tspan></text></g></g><g><g><rect x="760" y="47.5" width="71" height="32" class="transparent-fill stroke" rx="5" ry="5"></rect><text x="760" y="47.5" font-size="16" dy="23.5" dx="35.5" class="text" text-anchor="middle"><tspan class="quote">`</tspan><tspan>1</tspan><tspan class="quote">`</tspan><tspan class="quote"> - </tspan><tspan class="quote">`</tspan><tspan>9</tspan><tspan class="quote">`</tspan></text><text x="795.5" y="47.5" font-size="12" text-anchor="middle" dy="-6" class="text">One of</text></g></g><g><g><rect x="686" y="114.5" width="48" height="32" class="transparent-fill stroke" rx="5" ry="5"></rect><text x="686" y="114.5" font-size="16" dy="23.5" dx="24" class="text" text-anchor="middle"><tspan class="quote">`</tspan><tspan>12</tspan><tspan class="quote">`</tspan></text><text x="710" y="114.5" font-size="12" text-anchor="middle" dy="-6" class="text">One of</text></g></g><g><g><rect x="761" y="114.5" width="82" height="32" class="transparent-fill stroke" rx="5" ry="5"></rect><text x="761" y="114.5" font-size="16" dy="23.5" dx="41" class="text" text-anchor="middle"><tspan>Any digit</tspan></text></g></g><g><g><rect x="705.5" y="181.5" width="39" height="32" class="transparent-fill stroke" rx="5" ry="5"></rect><text x="705.5" y="181.5" font-size="16" dy="23.5" dx="19.5" class="text" text-anchor="middle"><tspan class="quote">`</tspan><tspan>3</tspan><tspan class="quote">`</tspan></text></g></g><g><g><rect x="771.5" y="181.5" width="48" height="32" class="transparent-fill stroke" rx="5" ry="5"></rect><text x="771.5" y="181.5" font-size="16" dy="23.5" dx="24" class="text" text-anchor="middle"><tspan class="quote">`</tspan><tspan>01</tspan><tspan class="quote">`</tspan></text><text x="795.5" y="181.5" font-size="12" text-anchor="middle" dy="-6" class="text">One of</text></g></g><g><g><rect x="928" y="125.5" width="10" height="10" class="transparent-fill stroke" rx="10" ry="10"></rect></g></g></svg>