<svg version="1.1" xmlns="http://www.w3.org/2000/svg" width="991" height="261" data-reactroot=""><path d="M5,130.5L5,130.5" class="stroke" fill="none"></path><path d="M39,130.5L66,130.5" class="stroke" fill="none"></path><path d="M114,130.5L141,130.5" class="stroke" fill="none"></path><path d="M223,130.5L248,130.5" class="stroke" fill="none"></path><path d="M283,130.5L308,130.5" class="stroke" fill="none"></path><path d="M308,130.5L333,130.5" class="stroke" fill="none"></path><path d="M333,130.5L343,130.5A5 5 0 0 0, 348,125.5L348,102A5 5 0 0 1, 353,97L368,97" class="stroke" fill="none"></path><path d="M538,130.5L528,130.5A5 5 0 0 1, 523,125.5L523,102A5 5 0 0 0, 518,97L503,97" class="stroke" fill="none"></path><path d="M368,97L368,97" class="stroke" fill="none"></path><path d="M407,97L432,97" class="stroke" fill="none"></path><path d="M503,97L503,97" class="stroke" fill="none"></path><path d="M333,130.5L343,130.5A5 5 0 0 1, 348,135.5L348,159A5 5 0 0 0, 353,164L368,164" class="stroke" fill="none"></path><path d="M538,130.5L528,130.5A5 5 0 0 0, 523,135.5L523,159A5 5 0 0 1, 518,164L503,164" class="stroke" fill="none"></path><path d="M368,164L368,164" class="stroke" fill="none"></path><path d="M407,164L432,164" class="stroke" fill="none"></path><path d="M503,164L503,164" class="stroke" fill="none"></path><path d="M538,130.5L563,130.5" class="stroke" fill="none"></path><path d="M563,130.5L588,130.5" class="stroke" fill="none"></path><path d="M623,130.5L648,130.5" class="stroke" fill="none"></path><path d="M648,130.5L673,130.5" class="stroke" fill="none"></path><path d="M673,130.5L683,130.5A5 5 0 0 0, 688,125.5L688,68.5A5 5 0 0 1, 693,63.5L708,63.5" class="stroke" fill="none"></path><path d="M902,130.5L892,130.5A5 5 0 0 1, 887,125.5L887,68.5A5 5 0 0 0, 882,63.5L867,63.5" class="stroke" fill="none"></path><path d="M708,63.5L720,63.5" class="stroke" fill="none"></path><path d="M759,63.5L784,63.5" class="stroke" fill="none"></path><path d="M855,63.5L867,63.5" class="stroke" fill="none"></path><path d="M673,130.5L708,130.5" class="stroke" fill="none"></path><path d="M867,130.5L902,130.5" class="stroke" fill="none"></path><path d="M708,130.5L710,130.5" class="stroke" fill="none"></path><path d="M758,130.5L785,130.5" class="stroke" fill="none"></path><path d="M867,130.5L867,130.5" class="stroke" fill="none"></path><path d="M673,130.5L683,130.5A5 5 0 0 1, 688,135.5L688,192.5A5 5 0 0 0, 693,197.5L708,197.5" class="stroke" fill="none"></path><path d="M902,130.5L892,130.5A5 5 0 0 0, 887,135.5L887,192.5A5 5 0 0 1, 882,197.5L867,197.5" class="stroke" fill="none"></path><path d="M708,197.5L729.5,197.5" class="stroke" fill="none"></path><path d="M768.5,197.5L795.5,197.5" class="stroke" fill="none"></path><path d="M843.5,197.5L867,197.5" class="stroke" fill="none"></path><path d="M902,130.5L927,130.5" class="stroke" fill="none"></path><path d="M927,130.5L952,130.5" class="stroke" fill="none"></path><path d="M986,130.5L986,130.5" class="stroke" fill="none"></path><g><g><rect x="5" y="114.5" width="34" height="32" class="transparent-fill stroke" rx="5" ry="5"></rect><text x="5" y="114.5" font-size="16" dy="23.5" dx="17" class="text" text-anchor="middle"><tspan class="quote">`</tspan><tspan>/</tspan><tspan class="quote">`</tspan></text></g></g><g><g><rect x="66" y="114.5" width="48" height="32" class="transparent-fill stroke" rx="5" ry="5"></rect><text x="66" y="114.5" font-size="16" dy="23.5" dx="24" class="text" text-anchor="middle"><tspan class="quote">`</tspan><tspan>12</tspan><tspan class="quote">`</tspan></text><text x="90" y="114.5" font-size="12" text-anchor="middle" dy="-6" class="text">One of</text></g></g><g><g><rect x="141" y="114.5" width="82" height="32" class="transparent-fill stroke" rx="5" ry="5"></rect><g fill="none" class="thin-stroke" transform="translate(164.5 150.5)"><path d="M18 1l3 3-3 3"></path><path d="M6 15l-3-3 3-3"></path><path d="M3 9V7a3 3 0 0 13-3h14" stroke-dasharray=""></path><path d="M21 7v2a3 3 0 0 1-3 3H3" stroke-dasharray=""></path></g><text x="141" y="146.5" class="text" font-size="12" dx="51.5" dy="16" pointer-events="none">3</text><text x="141" y="114.5" font-size="16" dy="23.5" dx="41" class="text" text-anchor="middle"><tspan>Any digit</tspan></text></g></g><g><g><rect x="248" y="114.5" width="35" height="32" class="transparent-fill stroke" rx="5" ry="5"></rect><text x="248" y="114.5" font-size="16" dy="23.5" dx="17.5" class="text" text-anchor="middle"><tspan class="quote">`</tspan><tspan>-</tspan><tspan class="quote">`</tspan></text></g></g><g><g><rect x="308" y="48.5" width="255" height="164" class="transparent-fill second-stroke" rx="5" ry="5"></rect><text x="435.5" y="48.5" font-size="12" text-anchor="middle" dy="-6" class="text">Group #1</text></g></g><g><g><rect x="333" y="63.5" width="205" height="134" class="transparent-fill none-stroke" rx="5" ry="5" stroke-dasharray="4,4"></rect></g></g><g><g><rect x="368" y="81" width="39" height="32" class="transparent-fill stroke" rx="5" ry="5"></rect><text x="368" y="81" font-size="16" dy="23.5" dx="19.5" class="text" text-anchor="middle"><tspan class="quote">`</tspan><tspan>0</tspan><tspan class="quote">`</tspan></text></g></g><g><g><rect x="432" y="81" width="71" height="32" class="transparent-fill stroke" rx="5" ry="5"></rect><text x="432" y="81" font-size="16" dy="23.5" dx="35.5" class="text" text-anchor="middle"><tspan class="quote">`</tspan><tspan>1</tspan><tspan class="quote">`</tspan><tspan class="quote"> - </tspan><tspan class="quote">`</tspan><tspan>9</tspan><tspan class="quote">`</tspan></text><text x="467.5" y="81" font-size="12" text-anchor="middle" dy="-6" class="text">One of</text></g></g><g><g><rect x="368" y="148" width="39" height="32" class="transparent-fill stroke" rx="5" ry="5"></rect><text x="368" y="148" font-size="16" dy="23.5" dx="19.5" class="text" text-anchor="middle"><tspan class="quote">`</tspan><tspan>1</tspan><tspan class="quote">`</tspan></text></g></g><g><g><rect x="432" y="148" width="71" height="32" class="transparent-fill stroke" rx="5" ry="5"></rect><text x="432" y="148" font-size="16" dy="23.5" dx="35.5" class="text" text-anchor="middle"><tspan class="quote">`</tspan><tspan>0</tspan><tspan class="quote">`</tspan><tspan class="quote"> - </tspan><tspan class="quote">`</tspan><tspan>2</tspan><tspan class="quote">`</tspan></text><text x="467.5" y="148" font-size="12" text-anchor="middle" dy="-6" class="text">One of</text></g></g><g><g><rect x="588" y="114.5" width="35" height="32" class="transparent-fill stroke" rx="5" ry="5"></rect><text x="588" y="114.5" font-size="16" dy="23.5" dx="17.5" class="text" text-anchor="middle"><tspan class="quote">`</tspan><tspan>-</tspan><tspan class="quote">`</tspan></text></g></g><g><g><rect x="648" y="15" width="279" height="231" class="transparent-fill second-stroke" rx="5" ry="5"></rect><text x="787.5" y="15" font-size="12" text-anchor="middle" dy="-6" class="text">Group #2</text></g></g><g><g><rect x="673" y="30" width="229" height="201" class="transparent-fill none-stroke" rx="5" ry="5" stroke-dasharray="4,4"></rect></g></g><g><g><rect x="720" y="47.5" width="39" height="32" class="transparent-fill stroke" rx="5" ry="5"></rect><text x="720" y="47.5" font-size="16" dy="23.5" dx="19.5" class="text" text-anchor="middle"><tspan class="quote">`</tspan><tspan>0</tspan><tspan class="quote">`</tspan></text></g></g><g><g><rect x="784" y="47.5" width="71" height="32" class="transparent-fill stroke" rx="5" ry="5"></rect><text x="784" y="47.5" font-size="16" dy="23.5" dx="35.5" class="text" text-anchor="middle"><tspan class="quote">`</tspan><tspan>1</tspan><tspan class="quote">`</tspan><tspan class="quote"> - </tspan><tspan class="quote">`</tspan><tspan>9</tspan><tspan class="quote">`</tspan></text><text x="819.5" y="47.5" font-size="12" text-anchor="middle" dy="-6" class="text">One of</text></g></g><g><g><rect x="710" y="114.5" width="48" height="32" class="transparent-fill stroke" rx="5" ry="5"></rect><text x="710" y="114.5" font-size="16" dy="23.5" dx="24" class="text" text-anchor="middle"><tspan class="quote">`</tspan><tspan>12</tspan><tspan class="quote">`</tspan></text><text x="734" y="114.5" font-size="12" text-anchor="middle" dy="-6" class="text">One of</text></g></g><g><g><rect x="785" y="114.5" width="82" height="32" class="transparent-fill stroke" rx="5" ry="5"></rect><text x="785" y="114.5" font-size="16" dy="23.5" dx="41" class="text" text-anchor="middle"><tspan>Any digit</tspan></text></g></g><g><g><rect x="729.5" y="181.5" width="39" height="32" class="transparent-fill stroke" rx="5" ry="5"></rect><text x="729.5" y="181.5" font-size="16" dy="23.5" dx="19.5" class="text" text-anchor="middle"><tspan class="quote">`</tspan><tspan>3</tspan><tspan class="quote">`</tspan></text></g></g><g><g><rect x="795.5" y="181.5" width="48" height="32" class="transparent-fill stroke" rx="5" ry="5"></rect><text x="795.5" y="181.5" font-size="16" dy="23.5" dx="24" class="text" text-anchor="middle"><tspan class="quote">`</tspan><tspan>01</tspan><tspan class="quote">`</tspan></text><text x="819.5" y="181.5" font-size="12" text-anchor="middle" dy="-6" class="text">One of</text></g></g><g><g><rect x="952" y="114.5" width="34" height="32" class="transparent-fill stroke" rx="5" ry="5"></rect><text x="952" y="114.5" font-size="16" dy="23.5" dx="17" class="text" text-anchor="middle"><tspan class="quote">`</tspan><tspan>/</tspan><tspan class="quote">`</tspan></text></g></g></svg>