<svg version="1.1" xmlns="http://www.w3.org/2000/svg" width="555" height="70" data-reactroot=""><path d="M15,35L40,35" class="stroke" fill="none"></path><path d="M135,35L160,35" class="stroke" fill="none"></path><path d="M242,35L267,35" class="stroke" fill="none"></path><path d="M301,35L326,35" class="stroke" fill="none"></path><path d="M408,35L433,35" class="stroke" fill="none"></path><path d="M515,35L540,35" class="stroke" fill="none"></path><g><g><rect x="5" y="30" width="10" height="10" class="transparent-fill stroke" rx="10" ry="10"></rect></g></g><g><g><rect x="40" y="19" width="95" height="32" class="transparent-fill stroke" rx="5" ry="5"></rect><text x="40" y="19" font-size="16" dy="23.5" dx="47.5" class="text" text-anchor="middle"><tspan>Begin with</tspan></text></g></g><g><g><rect x="160" y="19" width="82" height="32" class="transparent-fill stroke" rx="5" ry="5"></rect><g fill="none" class="thin-stroke" transform="translate(174 55)"><path d="M18 1l3 3-3 3"></path><path d="M6 15l-3-3 3-3"></path><path d="M3 9V7a3 3 0 0 13-3h14" stroke-dasharray=""></path><path d="M21 7v2a3 3 0 0 1-3 3H3" stroke-dasharray=""></path></g><text x="160" y="51" class="text" font-size="12" dx="42" dy="16" pointer-events="none">0 - ∞</text><text x="160" y="19" font-size="16" dy="23.5" dx="41" class="text" text-anchor="middle"><tspan>Any digit</tspan></text></g></g><g><g><rect x="267" y="19" width="34" height="32" class="transparent-fill stroke" rx="5" ry="5"></rect><text x="267" y="19" font-size="16" dy="23.5" dx="17" class="text" text-anchor="middle"><tspan class="quote">`</tspan><tspan>.</tspan><tspan class="quote">`</tspan></text></g></g><g><g><rect x="326" y="19" width="82" height="32" class="transparent-fill stroke" rx="5" ry="5"></rect><g fill="none" class="thin-stroke" transform="translate(340 55)"><path d="M18 1l3 3-3 3"></path><path d="M6 15l-3-3 3-3"></path><path d="M3 9V7a3 3 0 0 13-3h14" stroke-dasharray=""></path><path d="M21 7v2a3 3 0 0 1-3 3H3" stroke-dasharray=""></path></g><text x="326" y="51" class="text" font-size="12" dx="42" dy="16" pointer-events="none">1 - ∞</text><text x="326" y="19" font-size="16" dy="23.5" dx="41" class="text" text-anchor="middle"><tspan>Any digit</tspan></text></g></g><g><g><rect x="433" y="19" width="82" height="32" class="transparent-fill stroke" rx="5" ry="5"></rect><text x="433" y="19" font-size="16" dy="23.5" dx="41" class="text" text-anchor="middle"><tspan>End with</tspan></text></g></g><g><g><rect x="540" y="30" width="10" height="10" class="transparent-fill stroke" rx="10" ry="10"></rect></g></g></svg>