<svg version="1.1" xmlns="http://www.w3.org/2000/svg" width="730" height="128" data-reactroot=""><path d="M5,64L5,64" class="stroke" fill="none"></path><path d="M39,64L64,64" class="stroke" fill="none"></path><path d="M159,64L192.5,64" class="stroke" fill="none"></path><path d="M227.5,64L261,64" class="stroke" fill="none"></path><path d="M343,64L368,64" class="stroke" fill="none"></path><path d="M368,64L393,64" class="stroke" fill="none"></path><path d="M427,64L452,64" class="stroke" fill="none"></path><path d="M534,64L559,64" class="stroke" fill="none"></path><path d="M559,64L584,64" class="stroke" fill="none"></path><path d="M666,64L691,64" class="stroke" fill="none"></path><path d="M725,64L725,64" class="stroke" fill="none"></path><g><g><rect x="5" y="48" width="34" height="32" class="transparent-fill stroke" rx="5" ry="5"></rect><text x="5" y="48" font-size="16" dy="23.5" dx="17" class="text" text-anchor="middle"><tspan class="quote">`</tspan><tspan>/</tspan><tspan class="quote">`</tspan></text></g></g><g><g><rect x="64" y="48" width="95" height="32" class="transparent-fill stroke" rx="5" ry="5"></rect><text x="64" y="48" font-size="16" dy="23.5" dx="47.5" class="text" text-anchor="middle"><tspan>Begin with</tspan></text></g></g><g><g><rect x="192.5" y="48" width="35" height="32" class="transparent-fill stroke" rx="5" ry="5"></rect><g fill="none" class="thin-stroke" transform="translate(184 84)"><path d="M18 1l3 3-3 3"></path><path d="M6 15l-3-3 3-3"></path><path d="M3 9V7a3 3 0 0 13-3h14" stroke-dasharray=""></path><path d="M21 7v2a3 3 0 0 1-3 3H3" stroke-dasharray=""></path></g><text x="192.5" y="80" class="text" font-size="12" dx="19.5" dy="16" pointer-events="none">0 - 1</text><text x="192.5" y="48" font-size="16" dy="23.5" dx="17.5" class="text" text-anchor="middle"><tspan class="quote">`</tspan><tspan>-</tspan><tspan class="quote">`</tspan></text></g></g><g><g><rect x="261" y="48" width="82" height="32" class="transparent-fill stroke" rx="5" ry="5"></rect><g fill="none" class="thin-stroke" transform="translate(275 84)"><path d="M18 1l3 3-3 3"></path><path d="M6 15l-3-3 3-3"></path><path d="M3 9V7a3 3 0 0 13-3h14" stroke-dasharray=""></path><path d="M21 7v2a3 3 0 0 1-3 3H3" stroke-dasharray=""></path></g><text x="261" y="80" class="text" font-size="12" dx="42" dy="16" pointer-events="none">0 - ∞</text><text x="261" y="48" font-size="16" dy="23.5" dx="41" class="text" text-anchor="middle"><tspan>Any digit</tspan></text></g></g><g><g><rect x="368" y="19" width="191" height="90" class="transparent-fill second-stroke" rx="5" ry="5"></rect><g fill="none" class="thin-stroke" transform="translate(437.5 113)"><path d="M18 1l3 3-3 3"></path><path d="M6 15l-3-3 3-3"></path><path d="M3 9V7a3 3 0 0 13-3h14" stroke-dasharray=""></path><path d="M21 7v2a3 3 0 0 1-3 3H3" stroke-dasharray=""></path></g><text x="368" y="109" class="text" font-size="12" dx="97.5" dy="16" pointer-events="none">0 - 1</text><text x="463.5" y="19" font-size="12" text-anchor="middle" dy="-6" class="text">Group #1</text></g></g><g><g><rect x="393" y="48" width="34" height="32" class="transparent-fill stroke" rx="5" ry="5"></rect><text x="393" y="48" font-size="16" dy="23.5" dx="17" class="text" text-anchor="middle"><tspan class="quote">`</tspan><tspan>.</tspan><tspan class="quote">`</tspan></text></g></g><g><g><rect x="452" y="48" width="82" height="32" class="transparent-fill stroke" rx="5" ry="5"></rect><g fill="none" class="thin-stroke" transform="translate(466 84)"><path d="M18 1l3 3-3 3"></path><path d="M6 15l-3-3 3-3"></path><path d="M3 9V7a3 3 0 0 13-3h14" stroke-dasharray=""></path><path d="M21 7v2a3 3 0 0 1-3 3H3" stroke-dasharray=""></path></g><text x="452" y="80" class="text" font-size="12" dx="42" dy="16" pointer-events="none">1 - ∞</text><text x="452" y="48" font-size="16" dy="23.5" dx="41" class="text" text-anchor="middle"><tspan>Any digit</tspan></text></g></g><g><g><rect x="584" y="48" width="82" height="32" class="transparent-fill stroke" rx="5" ry="5"></rect><text x="584" y="48" font-size="16" dy="23.5" dx="41" class="text" text-anchor="middle"><tspan>End with</tspan></text></g></g><g><g><rect x="691" y="48" width="34" height="32" class="transparent-fill stroke" rx="5" ry="5"></rect><text x="691" y="48" font-size="16" dy="23.5" dx="17" class="text" text-anchor="middle"><tspan class="quote">`</tspan><tspan>/</tspan><tspan class="quote">`</tspan></text></g></g></svg>