<svg version="1.1" xmlns="http://www.w3.org/2000/svg" width="182" height="70" data-reactroot=""><path d="M5,35L5,35" class="stroke" fill="none"></path><path d="M39,35L71.5,35" class="stroke" fill="none"></path><path d="M110.5,35L143,35" class="stroke" fill="none"></path><path d="M177,35L177,35" class="stroke" fill="none"></path><g><g><rect x="5" y="19" width="34" height="32" class="transparent-fill stroke" rx="5" ry="5"></rect><text x="5" y="19" font-size="16" dy="23.5" dx="17" class="text" text-anchor="middle"><tspan class="quote">`</tspan><tspan>/</tspan><tspan class="quote">`</tspan></text></g></g><g><g><rect x="71.5" y="19" width="39" height="32" class="transparent-fill stroke" rx="5" ry="5"></rect><g fill="none" class="thin-stroke" transform="translate(64 55)"><path d="M18 1l3 3-3 3"></path><path d="M6 15l-3-3 3-3"></path><path d="M3 9V7a3 3 0 0 13-3h14" stroke-dasharray=""></path><path d="M21 7v2a3 3 0 0 1-3 3H3" stroke-dasharray=""></path></g><text x="71.5" y="51" class="text" font-size="12" dx="20.5" dy="16" pointer-events="none">0 - ∞</text><text x="71.5" y="19" font-size="16" dy="23.5" dx="19.5" class="text" text-anchor="middle"><tspan class="quote">`</tspan><tspan>a</tspan><tspan class="quote">`</tspan></text></g></g><g><g><rect x="143" y="19" width="34" height="32" class="transparent-fill stroke" rx="5" ry="5"></rect><text x="143" y="19" font-size="16" dy="23.5" dx="17" class="text" text-anchor="middle"><tspan class="quote">`</tspan><tspan>/</tspan><tspan class="quote">`</tspan></text></g></g></svg>