<svg version="1.1" xmlns="http://www.w3.org/2000/svg" width="1327" height="183" data-reactroot=""><path d="M15,91.5L40,91.5" class="stroke" fill="none"></path><path d="M135,91.5L160,91.5" class="stroke" fill="none"></path><path d="M216,91.5L248,91.5" class="stroke" fill="none"></path><path d="M286,91.5L318,91.5" class="stroke" fill="none"></path><path d="M360,91.5L385,91.5" class="stroke" fill="none"></path><path d="M385,91.5L410,91.5" class="stroke" fill="none"></path><path d="M479,91.5L504,91.5" class="stroke" fill="none"></path><path d="M504,91.5L529,91.5" class="stroke" fill="none"></path><path d="M647,91.5L672,91.5" class="stroke" fill="none"></path><path d="M706,91.5L731,91.5" class="stroke" fill="none"></path><path d="M801,91.5L826,91.5" class="stroke" fill="none"></path><path d="M953,91.5L978,91.5" class="stroke" fill="none"></path><path d="M978,91.5L1003,91.5" class="stroke" fill="none"></path><path d="M1155,91.5L1180,91.5" class="stroke" fill="none"></path><path d="M1180,91.5L1205,91.5" class="stroke" fill="none"></path><path d="M1287,91.5L1312,91.5" class="stroke" fill="none"></path><g><g><rect x="5" y="86.5" width="10" height="10" class="transparent-fill stroke" rx="10" ry="10"></rect></g></g><g><g><rect x="40" y="75.5" width="95" height="32" class="transparent-fill stroke" rx="5" ry="5"></rect><text x="40" y="75.5" font-size="16" dy="23.5" dx="47.5" class="text" text-anchor="middle"><tspan>Begin with</tspan></text></g></g><g><g><rect x="160" y="75.5" width="56" height="32" class="transparent-fill stroke" rx="5" ry="5"></rect><text x="160" y="75.5" font-size="16" dy="23.5" dx="28" class="text" text-anchor="middle"><tspan class="quote">`</tspan><tspan>http</tspan><tspan class="quote">`</tspan></text></g></g><g><g><rect x="248" y="75.5" width="38" height="32" class="transparent-fill stroke" rx="5" ry="5"></rect><g fill="none" class="thin-stroke" transform="translate(241 111.5)"><path d="M18 1l3 3-3 3"></path><path d="M6 15l-3-3 3-3"></path><path d="M3 9V7a3 3 0 0 13-3h14" stroke-dasharray=""></path><path d="M21 7v2a3 3 0 0 1-3 3H3" stroke-dasharray=""></path></g><text x="248" y="107.5" class="text" font-size="12" dx="21" dy="16" pointer-events="none">0 - 1</text><text x="248" y="75.5" font-size="16" dy="23.5" dx="19" class="text" text-anchor="middle"><tspan class="quote">`</tspan><tspan>s</tspan><tspan class="quote">`</tspan></text></g></g><g><g><rect x="318" y="75.5" width="42" height="32" class="transparent-fill stroke" rx="5" ry="5"></rect><text x="318" y="75.5" font-size="16" dy="23.5" dx="21" class="text" text-anchor="middle"><tspan class="quote">`</tspan><tspan>://</tspan><tspan class="quote">`</tspan></text></g></g><g><g><rect x="385" y="60.5" width="119" height="62" class="transparent-fill second-stroke" rx="5" ry="5"></rect><g fill="none" class="thin-stroke" transform="translate(418.5 126.5)"><path d="M18 1l3 3-3 3"></path><path d="M6 15l-3-3 3-3"></path><path d="M3 9V7a3 3 0 0 13-3h14" stroke-dasharray=""></path><path d="M21 7v2a3 3 0 0 1-3 3H3" stroke-dasharray=""></path></g><text x="385" y="122.5" class="text" font-size="12" dx="61.5" dy="16" pointer-events="none">0 - 1</text><text x="444.5" y="60.5" font-size="12" text-anchor="middle" dy="-6" class="text">Group #1</text></g></g><g><g><rect x="410" y="75.5" width="69" height="32" class="transparent-fill stroke" rx="5" ry="5"></rect><text x="410" y="75.5" font-size="16" dy="23.5" dx="34.5" class="text" text-anchor="middle"><tspan class="quote">`</tspan><tspan>www.</tspan><tspan class="quote">`</tspan></text></g></g><g><g><rect x="529" y="44" width="118" height="95" class="transparent-fill stroke" rx="5" ry="5"></rect><g fill="none" class="thin-stroke" transform="translate(555 143)"><path d="M18 1l3 3-3 3"></path><path d="M6 15l-3-3 3-3"></path><path d="M3 9V7a3 3 0 0 13-3h14" stroke-dasharray=""></path><path d="M21 7v2a3 3 0 0 1-3 3H3" stroke-dasharray=""></path></g><text x="529" y="139" class="text" font-size="12" dx="54" dy="16" pointer-events="none">2 - 256</text><text x="529" y="44" font-size="16" dy="23.5" dx="59" class="text" text-anchor="middle"><tspan class="quote">`</tspan><tspan>-@:%._+~#=</tspan><tspan class="quote">`</tspan></text><text x="529" y="44" font-size="16" dy="44.5" dx="59" class="text" text-anchor="middle"><tspan class="quote">`</tspan><tspan>a</tspan><tspan class="quote">`</tspan><tspan class="quote"> - </tspan><tspan class="quote">`</tspan><tspan>z</tspan><tspan class="quote">`</tspan></text><text x="529" y="44" font-size="16" dy="65.5" dx="59" class="text" text-anchor="middle"><tspan class="quote">`</tspan><tspan>A</tspan><tspan class="quote">`</tspan><tspan class="quote"> - </tspan><tspan class="quote">`</tspan><tspan>Z</tspan><tspan class="quote">`</tspan></text><text x="529" y="44" font-size="16" dy="86.5" dx="59" class="text" text-anchor="middle"><tspan class="quote">`</tspan><tspan>0</tspan><tspan class="quote">`</tspan><tspan class="quote"> - </tspan><tspan class="quote">`</tspan><tspan>9</tspan><tspan class="quote">`</tspan></text><text x="588" y="44" font-size="12" text-anchor="middle" dy="-6" class="text">One of</text></g></g><g><g><rect x="672" y="75.5" width="34" height="32" class="transparent-fill stroke" rx="5" ry="5"></rect><text x="672" y="75.5" font-size="16" dy="23.5" dx="17" class="text" text-anchor="middle"><tspan class="quote">`</tspan><tspan>.</tspan><tspan class="quote">`</tspan></text></g></g><g><g><rect x="731" y="75.5" width="70" height="32" class="transparent-fill stroke" rx="5" ry="5"></rect><g fill="none" class="thin-stroke" transform="translate(740 111.5)"><path d="M18 1l3 3-3 3"></path><path d="M6 15l-3-3 3-3"></path><path d="M3 9V7a3 3 0 0 13-3h14" stroke-dasharray=""></path><path d="M21 7v2a3 3 0 0 1-3 3H3" stroke-dasharray=""></path></g><text x="731" y="107.5" class="text" font-size="12" dx="37" dy="16" pointer-events="none">2 - 6</text><text x="731" y="75.5" font-size="16" dy="23.5" dx="35" class="text" text-anchor="middle"><tspan class="quote">`</tspan><tspan>a</tspan><tspan class="quote">`</tspan><tspan class="quote"> - </tspan><tspan class="quote">`</tspan><tspan>z</tspan><tspan class="quote">`</tspan></text><text x="766" y="75.5" font-size="12" text-anchor="middle" dy="-6" class="text">One of</text></g></g><g><g><rect x="826" y="75.5" width="127" height="32" class="transparent-fill stroke" rx="5" ry="5"></rect><text x="826" y="75.5" font-size="16" dy="23.5" dx="63.5" class="text" text-anchor="middle"><tspan>WordBoundary</tspan></text></g></g><g><g><rect x="978" y="15" width="202" height="153" class="transparent-fill second-stroke" rx="5" ry="5"></rect><text x="1079" y="15" font-size="12" text-anchor="middle" dy="-6" class="text">Group #2</text></g></g><g><g><rect x="1003" y="44" width="152" height="95" class="transparent-fill stroke" rx="5" ry="5"></rect><g fill="none" class="thin-stroke" transform="translate(1052 143)"><path d="M18 1l3 3-3 3"></path><path d="M6 15l-3-3 3-3"></path><path d="M3 9V7a3 3 0 0 13-3h14" stroke-dasharray=""></path><path d="M21 7v2a3 3 0 0 1-3 3H3" stroke-dasharray=""></path></g><text x="1003" y="139" class="text" font-size="12" dx="77" dy="16" pointer-events="none">0 - ∞</text><text x="1003" y="44" font-size="16" dy="23.5" dx="76" class="text" text-anchor="middle"><tspan class="quote">`</tspan><tspan>-@:%_+.~#()?&amp;/=</tspan><tspan class="quote">`</tspan></text><text x="1003" y="44" font-size="16" dy="44.5" dx="76" class="text" text-anchor="middle"><tspan class="quote">`</tspan><tspan>a</tspan><tspan class="quote">`</tspan><tspan class="quote"> - </tspan><tspan class="quote">`</tspan><tspan>z</tspan><tspan class="quote">`</tspan></text><text x="1003" y="44" font-size="16" dy="65.5" dx="76" class="text" text-anchor="middle"><tspan class="quote">`</tspan><tspan>A</tspan><tspan class="quote">`</tspan><tspan class="quote"> - </tspan><tspan class="quote">`</tspan><tspan>Z</tspan><tspan class="quote">`</tspan></text><text x="1003" y="44" font-size="16" dy="86.5" dx="76" class="text" text-anchor="middle"><tspan class="quote">`</tspan><tspan>0</tspan><tspan class="quote">`</tspan><tspan class="quote"> - </tspan><tspan class="quote">`</tspan><tspan>9</tspan><tspan class="quote">`</tspan></text><text x="1079" y="44" font-size="12" text-anchor="middle" dy="-6" class="text">One of</text></g></g><g><g><rect x="1205" y="75.5" width="82" height="32" class="transparent-fill stroke" rx="5" ry="5"></rect><text x="1205" y="75.5" font-size="16" dy="23.5" dx="41" class="text" text-anchor="middle"><tspan>End with</tspan></text></g></g><g><g><rect x="1312" y="86.5" width="10" height="10" class="transparent-fill stroke" rx="10" ry="10"></rect></g></g></svg>