<svg version="1.1" xmlns="http://www.w3.org/2000/svg" width="1205" height="498" data-reactroot=""><path d="M15,249L40,249" class="stroke" fill="none"></path><path d="M135,249L160,249" class="stroke" fill="none"></path><path d="M216,249L248,249" class="stroke" fill="none"></path><path d="M286,249L318,249" class="stroke" fill="none"></path><path d="M360,249L385,249" class="stroke" fill="none"></path><path d="M385,249L410,249" class="stroke" fill="none"></path><path d="M479,249L504,249" class="stroke" fill="none"></path><path d="M504,249L529,249" class="stroke" fill="none"></path><path d="M603,249L628,249" class="stroke" fill="none"></path><path d="M662,249L687,249" class="stroke" fill="none"></path><path d="M757,249L782,249" class="stroke" fill="none"></path><path d="M909,249L934,249" class="stroke" fill="none"></path><path d="M934,249L959,249" class="stroke" fill="none"></path><path d="M1033,249L1058,249" class="stroke" fill="none"></path><path d="M1058,249L1083,249" class="stroke" fill="none"></path><path d="M1165,249L1190,249" class="stroke" fill="none"></path><g><g><rect x="5" y="244" width="10" height="10" class="transparent-fill stroke" rx="10" ry="10"></rect></g></g><g><g><rect x="40" y="233" width="95" height="32" class="transparent-fill stroke" rx="5" ry="5"></rect><text x="40" y="233" font-size="16" dy="23.5" dx="47.5" class="text" text-anchor="middle"><tspan>Begin with</tspan></text></g></g><g><g><rect x="160" y="233" width="56" height="32" class="transparent-fill stroke" rx="5" ry="5"></rect><text x="160" y="233" font-size="16" dy="23.5" dx="28" class="text" text-anchor="middle"><tspan class="quote">`</tspan><tspan>http</tspan><tspan class="quote">`</tspan></text></g></g><g><g><rect x="248" y="233" width="38" height="32" class="transparent-fill stroke" rx="5" ry="5"></rect><g fill="none" class="thin-stroke" transform="translate(241 269)"><path d="M18 1l3 3-3 3"></path><path d="M6 15l-3-3 3-3"></path><path d="M3 9V7a3 3 0 0 13-3h14" stroke-dasharray=""></path><path d="M21 7v2a3 3 0 0 1-3 3H3" stroke-dasharray=""></path></g><text x="248" y="265" class="text" font-size="12" dx="21" dy="16" pointer-events="none">0 - 1</text><text x="248" y="233" font-size="16" dy="23.5" dx="19" class="text" text-anchor="middle"><tspan class="quote">`</tspan><tspan>s</tspan><tspan class="quote">`</tspan></text></g></g><g><g><rect x="318" y="233" width="42" height="32" class="transparent-fill stroke" rx="5" ry="5"></rect><text x="318" y="233" font-size="16" dy="23.5" dx="21" class="text" text-anchor="middle"><tspan class="quote">`</tspan><tspan>://</tspan><tspan class="quote">`</tspan></text></g></g><g><g><rect x="385" y="218" width="119" height="62" class="transparent-fill second-stroke" rx="5" ry="5"></rect><g fill="none" class="thin-stroke" transform="translate(418.5 284)"><path d="M18 1l3 3-3 3"></path><path d="M6 15l-3-3 3-3"></path><path d="M3 9V7a3 3 0 0 13-3h14" stroke-dasharray=""></path><path d="M21 7v2a3 3 0 0 1-3 3H3" stroke-dasharray=""></path></g><text x="385" y="280" class="text" font-size="12" dx="61.5" dy="16" pointer-events="none">0 - 1</text><text x="444.5" y="218" font-size="12" text-anchor="middle" dy="-6" class="text">Group #1</text></g></g><g><g><rect x="410" y="233" width="69" height="32" class="transparent-fill stroke" rx="5" ry="5"></rect><text x="410" y="233" font-size="16" dy="23.5" dx="34.5" class="text" text-anchor="middle"><tspan class="quote">`</tspan><tspan>www.</tspan><tspan class="quote">`</tspan></text></g></g><g><g><rect x="529" y="107" width="74" height="284" class="transparent-fill stroke" rx="5" ry="5"></rect><g fill="none" class="thin-stroke" transform="translate(533 395)"><path d="M18 1l3 3-3 3"></path><path d="M6 15l-3-3 3-3"></path><path d="M3 9V7a3 3 0 0 13-3h14" stroke-dasharray=""></path><path d="M21 7v2a3 3 0 0 1-3 3H3" stroke-dasharray=""></path></g><text x="529" y="391" class="text" font-size="12" dx="32" dy="16" pointer-events="none">2 - 256</text><text x="529" y="107" font-size="16" dy="23.5" dx="37" class="text" text-anchor="middle"><tspan class="quote">`</tspan><tspan>-</tspan><tspan class="quote">`</tspan></text><text x="529" y="107" font-size="16" dy="44.5" dx="37" class="text" text-anchor="middle"><tspan class="quote">`</tspan><tspan>a</tspan><tspan class="quote">`</tspan><tspan class="quote"> - </tspan><tspan class="quote">`</tspan><tspan>z</tspan><tspan class="quote">`</tspan></text><text x="529" y="107" font-size="16" dy="65.5" dx="37" class="text" text-anchor="middle"><tspan class="quote">`</tspan><tspan>A</tspan><tspan class="quote">`</tspan><tspan class="quote"> - </tspan><tspan class="quote">`</tspan><tspan>Z</tspan><tspan class="quote">`</tspan></text><text x="529" y="107" font-size="16" dy="86.5" dx="37" class="text" text-anchor="middle"><tspan class="quote">`</tspan><tspan>0</tspan><tspan class="quote">`</tspan><tspan class="quote"> - </tspan><tspan class="quote">`</tspan><tspan>9</tspan><tspan class="quote">`</tspan></text><text x="529" y="107" font-size="16" dy="107.5" dx="37" class="text" text-anchor="middle"><tspan class="quote">`</tspan><tspan>@</tspan><tspan class="quote">`</tspan></text><text x="529" y="107" font-size="16" dy="128.5" dx="37" class="text" text-anchor="middle"><tspan class="quote">`</tspan><tspan>:</tspan><tspan class="quote">`</tspan></text><text x="529" y="107" font-size="16" dy="149.5" dx="37" class="text" text-anchor="middle"><tspan class="quote">`</tspan><tspan>%</tspan><tspan class="quote">`</tspan></text><text x="529" y="107" font-size="16" dy="170.5" dx="37" class="text" text-anchor="middle"><tspan class="quote">`</tspan><tspan>.</tspan><tspan class="quote">`</tspan></text><text x="529" y="107" font-size="16" dy="191.5" dx="37" class="text" text-anchor="middle"><tspan class="quote">`</tspan><tspan>_</tspan><tspan class="quote">`</tspan></text><text x="529" y="107" font-size="16" dy="212.5" dx="37" class="text" text-anchor="middle"><tspan class="quote">`</tspan><tspan>+</tspan><tspan class="quote">`</tspan></text><text x="529" y="107" font-size="16" dy="233.5" dx="37" class="text" text-anchor="middle"><tspan class="quote">`</tspan><tspan>~</tspan><tspan class="quote">`</tspan></text><text x="529" y="107" font-size="16" dy="254.5" dx="37" class="text" text-anchor="middle"><tspan class="quote">`</tspan><tspan>#</tspan><tspan class="quote">`</tspan></text><text x="529" y="107" font-size="16" dy="275.5" dx="37" class="text" text-anchor="middle"><tspan class="quote">`</tspan><tspan>=</tspan><tspan class="quote">`</tspan></text><text x="566" y="107" font-size="12" text-anchor="middle" dy="-6" class="text">One of</text></g></g><g><g><rect x="628" y="233" width="34" height="32" class="transparent-fill stroke" rx="5" ry="5"></rect><text x="628" y="233" font-size="16" dy="23.5" dx="17" class="text" text-anchor="middle"><tspan class="quote">`</tspan><tspan>.</tspan><tspan class="quote">`</tspan></text></g></g><g><g><rect x="687" y="233" width="70" height="32" class="transparent-fill stroke" rx="5" ry="5"></rect><g fill="none" class="thin-stroke" transform="translate(696 269)"><path d="M18 1l3 3-3 3"></path><path d="M6 15l-3-3 3-3"></path><path d="M3 9V7a3 3 0 0 13-3h14" stroke-dasharray=""></path><path d="M21 7v2a3 3 0 0 1-3 3H3" stroke-dasharray=""></path></g><text x="687" y="265" class="text" font-size="12" dx="37" dy="16" pointer-events="none">2 - 6</text><text x="687" y="233" font-size="16" dy="23.5" dx="35" class="text" text-anchor="middle"><tspan class="quote">`</tspan><tspan>a</tspan><tspan class="quote">`</tspan><tspan class="quote"> - </tspan><tspan class="quote">`</tspan><tspan>z</tspan><tspan class="quote">`</tspan></text><text x="722" y="233" font-size="12" text-anchor="middle" dy="-6" class="text">One of</text></g></g><g><g><rect x="782" y="233" width="127" height="32" class="transparent-fill stroke" rx="5" ry="5"></rect><text x="782" y="233" font-size="16" dy="23.5" dx="63.5" class="text" text-anchor="middle"><tspan>WordBoundary</tspan></text></g></g><g><g><rect x="934" y="15" width="124" height="468" class="transparent-fill second-stroke" rx="5" ry="5"></rect><text x="996" y="15" font-size="12" text-anchor="middle" dy="-6" class="text">Group #2</text></g></g><g><g><rect x="959" y="44" width="74" height="410" class="transparent-fill stroke" rx="5" ry="5"></rect><g fill="none" class="thin-stroke" transform="translate(969 458)"><path d="M18 1l3 3-3 3"></path><path d="M6 15l-3-3 3-3"></path><path d="M3 9V7a3 3 0 0 13-3h14" stroke-dasharray=""></path><path d="M21 7v2a3 3 0 0 1-3 3H3" stroke-dasharray=""></path></g><text x="959" y="454" class="text" font-size="12" dx="38" dy="16" pointer-events="none">0 - ∞</text><text x="959" y="44" font-size="16" dy="23.5" dx="37" class="text" text-anchor="middle"><tspan class="quote">`</tspan><tspan>-</tspan><tspan class="quote">`</tspan></text><text x="959" y="44" font-size="16" dy="44.5" dx="37" class="text" text-anchor="middle"><tspan class="quote">`</tspan><tspan>a</tspan><tspan class="quote">`</tspan><tspan class="quote"> - </tspan><tspan class="quote">`</tspan><tspan>z</tspan><tspan class="quote">`</tspan></text><text x="959" y="44" font-size="16" dy="65.5" dx="37" class="text" text-anchor="middle"><tspan class="quote">`</tspan><tspan>A</tspan><tspan class="quote">`</tspan><tspan class="quote"> - </tspan><tspan class="quote">`</tspan><tspan>Z</tspan><tspan class="quote">`</tspan></text><text x="959" y="44" font-size="16" dy="86.5" dx="37" class="text" text-anchor="middle"><tspan class="quote">`</tspan><tspan>0</tspan><tspan class="quote">`</tspan><tspan class="quote"> - </tspan><tspan class="quote">`</tspan><tspan>9</tspan><tspan class="quote">`</tspan></text><text x="959" y="44" font-size="16" dy="107.5" dx="37" class="text" text-anchor="middle"><tspan class="quote">`</tspan><tspan>@</tspan><tspan class="quote">`</tspan></text><text x="959" y="44" font-size="16" dy="128.5" dx="37" class="text" text-anchor="middle"><tspan class="quote">`</tspan><tspan>:</tspan><tspan class="quote">`</tspan></text><text x="959" y="44" font-size="16" dy="149.5" dx="37" class="text" text-anchor="middle"><tspan class="quote">`</tspan><tspan>%</tspan><tspan class="quote">`</tspan></text><text x="959" y="44" font-size="16" dy="170.5" dx="37" class="text" text-anchor="middle"><tspan class="quote">`</tspan><tspan>_</tspan><tspan class="quote">`</tspan></text><text x="959" y="44" font-size="16" dy="191.5" dx="37" class="text" text-anchor="middle"><tspan class="quote">`</tspan><tspan>+</tspan><tspan class="quote">`</tspan></text><text x="959" y="44" font-size="16" dy="212.5" dx="37" class="text" text-anchor="middle"><tspan class="quote">`</tspan><tspan>.</tspan><tspan class="quote">`</tspan></text><text x="959" y="44" font-size="16" dy="233.5" dx="37" class="text" text-anchor="middle"><tspan class="quote">`</tspan><tspan>~</tspan><tspan class="quote">`</tspan></text><text x="959" y="44" font-size="16" dy="254.5" dx="37" class="text" text-anchor="middle"><tspan class="quote">`</tspan><tspan>#</tspan><tspan class="quote">`</tspan></text><text x="959" y="44" font-size="16" dy="275.5" dx="37" class="text" text-anchor="middle"><tspan class="quote">`</tspan><tspan>(</tspan><tspan class="quote">`</tspan></text><text x="959" y="44" font-size="16" dy="296.5" dx="37" class="text" text-anchor="middle"><tspan class="quote">`</tspan><tspan>)</tspan><tspan class="quote">`</tspan></text><text x="959" y="44" font-size="16" dy="317.5" dx="37" class="text" text-anchor="middle"><tspan class="quote">`</tspan><tspan>?</tspan><tspan class="quote">`</tspan></text><text x="959" y="44" font-size="16" dy="338.5" dx="37" class="text" text-anchor="middle"><tspan class="quote">`</tspan><tspan>&amp;</tspan><tspan class="quote">`</tspan></text><text x="959" y="44" font-size="16" dy="359.5" dx="37" class="text" text-anchor="middle"><tspan class="quote">`</tspan><tspan>/</tspan><tspan class="quote">`</tspan></text><text x="959" y="44" font-size="16" dy="380.5" dx="37" class="text" text-anchor="middle"><tspan class="quote">`</tspan><tspan>/</tspan><tspan class="quote">`</tspan></text><text x="959" y="44" font-size="16" dy="401.5" dx="37" class="text" text-anchor="middle"><tspan class="quote">`</tspan><tspan>=</tspan><tspan class="quote">`</tspan></text><text x="996" y="44" font-size="12" text-anchor="middle" dy="-6" class="text">One of</text></g></g><g><g><rect x="1083" y="233" width="82" height="32" class="transparent-fill stroke" rx="5" ry="5"></rect><text x="1083" y="233" font-size="16" dy="23.5" dx="41" class="text" text-anchor="middle"><tspan>End with</tspan></text></g></g><g><g><rect x="1190" y="244" width="10" height="10" class="transparent-fill stroke" rx="10" ry="10"></rect></g></g></svg>