<svg version="1.1" xmlns="http://www.w3.org/2000/svg" width="1375" height="183" data-reactroot=""><path d="M5,91.5L5,91.5" class="stroke" fill="none"></path><path d="M39,91.5L64,91.5" class="stroke" fill="none"></path><path d="M159,91.5L184,91.5" class="stroke" fill="none"></path><path d="M240,91.5L272,91.5" class="stroke" fill="none"></path><path d="M310,91.5L342,91.5" class="stroke" fill="none"></path><path d="M384,91.5L409,91.5" class="stroke" fill="none"></path><path d="M409,91.5L434,91.5" class="stroke" fill="none"></path><path d="M503,91.5L528,91.5" class="stroke" fill="none"></path><path d="M528,91.5L553,91.5" class="stroke" fill="none"></path><path d="M671,91.5L696,91.5" class="stroke" fill="none"></path><path d="M730,91.5L755,91.5" class="stroke" fill="none"></path><path d="M825,91.5L850,91.5" class="stroke" fill="none"></path><path d="M977,91.5L1002,91.5" class="stroke" fill="none"></path><path d="M1002,91.5L1027,91.5" class="stroke" fill="none"></path><path d="M1179,91.5L1204,91.5" class="stroke" fill="none"></path><path d="M1204,91.5L1229,91.5" class="stroke" fill="none"></path><path d="M1311,91.5L1336,91.5" class="stroke" fill="none"></path><path d="M1370,91.5L1370,91.5" class="stroke" fill="none"></path><g><g><rect x="5" y="75.5" width="34" height="32" class="transparent-fill stroke" rx="5" ry="5"></rect><text x="5" y="75.5" font-size="16" dy="23.5" dx="17" class="text" text-anchor="middle"><tspan class="quote">`</tspan><tspan>/</tspan><tspan class="quote">`</tspan></text></g></g><g><g><rect x="64" y="75.5" width="95" height="32" class="transparent-fill stroke" rx="5" ry="5"></rect><text x="64" y="75.5" font-size="16" dy="23.5" dx="47.5" class="text" text-anchor="middle"><tspan>Begin with</tspan></text></g></g><g><g><rect x="184" y="75.5" width="56" height="32" class="transparent-fill stroke" rx="5" ry="5"></rect><text x="184" y="75.5" font-size="16" dy="23.5" dx="28" class="text" text-anchor="middle"><tspan class="quote">`</tspan><tspan>http</tspan><tspan class="quote">`</tspan></text></g></g><g><g><rect x="272" y="75.5" width="38" height="32" class="transparent-fill stroke" rx="5" ry="5"></rect><g fill="none" class="thin-stroke" transform="translate(265 111.5)"><path d="M18 1l3 3-3 3"></path><path d="M6 15l-3-3 3-3"></path><path d="M3 9V7a3 3 0 0 13-3h14" stroke-dasharray=""></path><path d="M21 7v2a3 3 0 0 1-3 3H3" stroke-dasharray=""></path></g><text x="272" y="107.5" class="text" font-size="12" dx="21" dy="16" pointer-events="none">0 - 1</text><text x="272" y="75.5" font-size="16" dy="23.5" dx="19" class="text" text-anchor="middle"><tspan class="quote">`</tspan><tspan>s</tspan><tspan class="quote">`</tspan></text></g></g><g><g><rect x="342" y="75.5" width="42" height="32" class="transparent-fill stroke" rx="5" ry="5"></rect><text x="342" y="75.5" font-size="16" dy="23.5" dx="21" class="text" text-anchor="middle"><tspan class="quote">`</tspan><tspan>://</tspan><tspan class="quote">`</tspan></text></g></g><g><g><rect x="409" y="60.5" width="119" height="62" class="transparent-fill second-stroke" rx="5" ry="5"></rect><g fill="none" class="thin-stroke" transform="translate(442.5 126.5)"><path d="M18 1l3 3-3 3"></path><path d="M6 15l-3-3 3-3"></path><path d="M3 9V7a3 3 0 0 13-3h14" stroke-dasharray=""></path><path d="M21 7v2a3 3 0 0 1-3 3H3" stroke-dasharray=""></path></g><text x="409" y="122.5" class="text" font-size="12" dx="61.5" dy="16" pointer-events="none">0 - 1</text><text x="468.5" y="60.5" font-size="12" text-anchor="middle" dy="-6" class="text">Group #1</text></g></g><g><g><rect x="434" y="75.5" width="69" height="32" class="transparent-fill stroke" rx="5" ry="5"></rect><text x="434" y="75.5" font-size="16" dy="23.5" dx="34.5" class="text" text-anchor="middle"><tspan class="quote">`</tspan><tspan>www.</tspan><tspan class="quote">`</tspan></text></g></g><g><g><rect x="553" y="44" width="118" height="95" class="transparent-fill stroke" rx="5" ry="5"></rect><g fill="none" class="thin-stroke" transform="translate(579 143)"><path d="M18 1l3 3-3 3"></path><path d="M6 15l-3-3 3-3"></path><path d="M3 9V7a3 3 0 0 13-3h14" stroke-dasharray=""></path><path d="M21 7v2a3 3 0 0 1-3 3H3" stroke-dasharray=""></path></g><text x="553" y="139" class="text" font-size="12" dx="54" dy="16" pointer-events="none">2 - 256</text><text x="553" y="44" font-size="16" dy="23.5" dx="59" class="text" text-anchor="middle"><tspan class="quote">`</tspan><tspan>-@:%._+~#=</tspan><tspan class="quote">`</tspan></text><text x="553" y="44" font-size="16" dy="44.5" dx="59" class="text" text-anchor="middle"><tspan class="quote">`</tspan><tspan>a</tspan><tspan class="quote">`</tspan><tspan class="quote"> - </tspan><tspan class="quote">`</tspan><tspan>z</tspan><tspan class="quote">`</tspan></text><text x="553" y="44" font-size="16" dy="65.5" dx="59" class="text" text-anchor="middle"><tspan class="quote">`</tspan><tspan>A</tspan><tspan class="quote">`</tspan><tspan class="quote"> - </tspan><tspan class="quote">`</tspan><tspan>Z</tspan><tspan class="quote">`</tspan></text><text x="553" y="44" font-size="16" dy="86.5" dx="59" class="text" text-anchor="middle"><tspan class="quote">`</tspan><tspan>0</tspan><tspan class="quote">`</tspan><tspan class="quote"> - </tspan><tspan class="quote">`</tspan><tspan>9</tspan><tspan class="quote">`</tspan></text><text x="612" y="44" font-size="12" text-anchor="middle" dy="-6" class="text">One of</text></g></g><g><g><rect x="696" y="75.5" width="34" height="32" class="transparent-fill stroke" rx="5" ry="5"></rect><text x="696" y="75.5" font-size="16" dy="23.5" dx="17" class="text" text-anchor="middle"><tspan class="quote">`</tspan><tspan>.</tspan><tspan class="quote">`</tspan></text></g></g><g><g><rect x="755" y="75.5" width="70" height="32" class="transparent-fill stroke" rx="5" ry="5"></rect><g fill="none" class="thin-stroke" transform="translate(764 111.5)"><path d="M18 1l3 3-3 3"></path><path d="M6 15l-3-3 3-3"></path><path d="M3 9V7a3 3 0 0 13-3h14" stroke-dasharray=""></path><path d="M21 7v2a3 3 0 0 1-3 3H3" stroke-dasharray=""></path></g><text x="755" y="107.5" class="text" font-size="12" dx="37" dy="16" pointer-events="none">2 - 6</text><text x="755" y="75.5" font-size="16" dy="23.5" dx="35" class="text" text-anchor="middle"><tspan class="quote">`</tspan><tspan>a</tspan><tspan class="quote">`</tspan><tspan class="quote"> - </tspan><tspan class="quote">`</tspan><tspan>z</tspan><tspan class="quote">`</tspan></text><text x="790" y="75.5" font-size="12" text-anchor="middle" dy="-6" class="text">One of</text></g></g><g><g><rect x="850" y="75.5" width="127" height="32" class="transparent-fill stroke" rx="5" ry="5"></rect><text x="850" y="75.5" font-size="16" dy="23.5" dx="63.5" class="text" text-anchor="middle"><tspan>WordBoundary</tspan></text></g></g><g><g><rect x="1002" y="15" width="202" height="153" class="transparent-fill second-stroke" rx="5" ry="5"></rect><text x="1103" y="15" font-size="12" text-anchor="middle" dy="-6" class="text">Group #2</text></g></g><g><g><rect x="1027" y="44" width="152" height="95" class="transparent-fill stroke" rx="5" ry="5"></rect><g fill="none" class="thin-stroke" transform="translate(1076 143)"><path d="M18 1l3 3-3 3"></path><path d="M6 15l-3-3 3-3"></path><path d="M3 9V7a3 3 0 0 13-3h14" stroke-dasharray=""></path><path d="M21 7v2a3 3 0 0 1-3 3H3" stroke-dasharray=""></path></g><text x="1027" y="139" class="text" font-size="12" dx="77" dy="16" pointer-events="none">0 - ∞</text><text x="1027" y="44" font-size="16" dy="23.5" dx="76" class="text" text-anchor="middle"><tspan class="quote">`</tspan><tspan>-@:%_+.~#()?&amp;/=</tspan><tspan class="quote">`</tspan></text><text x="1027" y="44" font-size="16" dy="44.5" dx="76" class="text" text-anchor="middle"><tspan class="quote">`</tspan><tspan>a</tspan><tspan class="quote">`</tspan><tspan class="quote"> - </tspan><tspan class="quote">`</tspan><tspan>z</tspan><tspan class="quote">`</tspan></text><text x="1027" y="44" font-size="16" dy="65.5" dx="76" class="text" text-anchor="middle"><tspan class="quote">`</tspan><tspan>A</tspan><tspan class="quote">`</tspan><tspan class="quote"> - </tspan><tspan class="quote">`</tspan><tspan>Z</tspan><tspan class="quote">`</tspan></text><text x="1027" y="44" font-size="16" dy="86.5" dx="76" class="text" text-anchor="middle"><tspan class="quote">`</tspan><tspan>0</tspan><tspan class="quote">`</tspan><tspan class="quote"> - </tspan><tspan class="quote">`</tspan><tspan>9</tspan><tspan class="quote">`</tspan></text><text x="1103" y="44" font-size="12" text-anchor="middle" dy="-6" class="text">One of</text></g></g><g><g><rect x="1229" y="75.5" width="82" height="32" class="transparent-fill stroke" rx="5" ry="5"></rect><text x="1229" y="75.5" font-size="16" dy="23.5" dx="41" class="text" text-anchor="middle"><tspan>End with</tspan></text></g></g><g><g><rect x="1336" y="75.5" width="34" height="32" class="transparent-fill stroke" rx="5" ry="5"></rect><text x="1336" y="75.5" font-size="16" dy="23.5" dx="17" class="text" text-anchor="middle"><tspan class="quote">`</tspan><tspan>/</tspan><tspan class="quote">`</tspan></text></g></g></svg>