<svg version="1.1" xmlns="http://www.w3.org/2000/svg" width="1257" height="183" data-reactroot=""><path d="M5,91.5L5,91.5" class="stroke" fill="none"></path><path d="M100,91.5L125,91.5" class="stroke" fill="none"></path><path d="M181,91.5L213,91.5" class="stroke" fill="none"></path><path d="M251,91.5L283,91.5" class="stroke" fill="none"></path><path d="M325,91.5L350,91.5" class="stroke" fill="none"></path><path d="M350,91.5L375,91.5" class="stroke" fill="none"></path><path d="M444,91.5L469,91.5" class="stroke" fill="none"></path><path d="M469,91.5L494,91.5" class="stroke" fill="none"></path><path d="M612,91.5L637,91.5" class="stroke" fill="none"></path><path d="M671,91.5L696,91.5" class="stroke" fill="none"></path><path d="M766,91.5L791,91.5" class="stroke" fill="none"></path><path d="M918,91.5L943,91.5" class="stroke" fill="none"></path><path d="M943,91.5L968,91.5" class="stroke" fill="none"></path><path d="M1120,91.5L1145,91.5" class="stroke" fill="none"></path><path d="M1145,91.5L1170,91.5" class="stroke" fill="none"></path><path d="M1252,91.5L1252,91.5" class="stroke" fill="none"></path><g><g><rect x="5" y="75.5" width="95" height="32" class="transparent-fill stroke" rx="5" ry="5"></rect><text x="5" y="75.5" font-size="16" dy="23.5" dx="47.5" class="text" text-anchor="middle"><tspan>Begin with</tspan></text></g></g><g><g><rect x="125" y="75.5" width="56" height="32" class="transparent-fill stroke" rx="5" ry="5"></rect><text x="125" y="75.5" font-size="16" dy="23.5" dx="28" class="text" text-anchor="middle"><tspan class="quote">`</tspan><tspan>http</tspan><tspan class="quote">`</tspan></text></g></g><g><g><rect x="213" y="75.5" width="38" height="32" class="transparent-fill stroke" rx="5" ry="5"></rect><g fill="none" class="thin-stroke" transform="translate(206 111.5)"><path d="M18 1l3 3-3 3"></path><path d="M6 15l-3-3 3-3"></path><path d="M3 9V7a3 3 0 0 13-3h14" stroke-dasharray=""></path><path d="M21 7v2a3 3 0 0 1-3 3H3" stroke-dasharray=""></path></g><text x="213" y="107.5" class="text" font-size="12" dx="21" dy="16" pointer-events="none">0 - 1</text><text x="213" y="75.5" font-size="16" dy="23.5" dx="19" class="text" text-anchor="middle"><tspan class="quote">`</tspan><tspan>s</tspan><tspan class="quote">`</tspan></text></g></g><g><g><rect x="283" y="75.5" width="42" height="32" class="transparent-fill stroke" rx="5" ry="5"></rect><text x="283" y="75.5" font-size="16" dy="23.5" dx="21" class="text" text-anchor="middle"><tspan class="quote">`</tspan><tspan>://</tspan><tspan class="quote">`</tspan></text></g></g><g><g><rect x="350" y="60.5" width="119" height="62" class="transparent-fill second-stroke" rx="5" ry="5"></rect><g fill="none" class="thin-stroke" transform="translate(383.5 126.5)"><path d="M18 1l3 3-3 3"></path><path d="M6 15l-3-3 3-3"></path><path d="M3 9V7a3 3 0 0 13-3h14" stroke-dasharray=""></path><path d="M21 7v2a3 3 0 0 1-3 3H3" stroke-dasharray=""></path></g><text x="350" y="122.5" class="text" font-size="12" dx="61.5" dy="16" pointer-events="none">0 - 1</text><text x="409.5" y="60.5" font-size="12" text-anchor="middle" dy="-6" class="text">Group #1</text></g></g><g><g><rect x="375" y="75.5" width="69" height="32" class="transparent-fill stroke" rx="5" ry="5"></rect><text x="375" y="75.5" font-size="16" dy="23.5" dx="34.5" class="text" text-anchor="middle"><tspan class="quote">`</tspan><tspan>www.</tspan><tspan class="quote">`</tspan></text></g></g><g><g><rect x="494" y="44" width="118" height="95" class="transparent-fill stroke" rx="5" ry="5"></rect><g fill="none" class="thin-stroke" transform="translate(520 143)"><path d="M18 1l3 3-3 3"></path><path d="M6 15l-3-3 3-3"></path><path d="M3 9V7a3 3 0 0 13-3h14" stroke-dasharray=""></path><path d="M21 7v2a3 3 0 0 1-3 3H3" stroke-dasharray=""></path></g><text x="494" y="139" class="text" font-size="12" dx="54" dy="16" pointer-events="none">2 - 256</text><text x="494" y="44" font-size="16" dy="23.5" dx="59" class="text" text-anchor="middle"><tspan class="quote">`</tspan><tspan>-@:%._+~#=</tspan><tspan class="quote">`</tspan></text><text x="494" y="44" font-size="16" dy="44.5" dx="59" class="text" text-anchor="middle"><tspan class="quote">`</tspan><tspan>a</tspan><tspan class="quote">`</tspan><tspan class="quote"> - </tspan><tspan class="quote">`</tspan><tspan>z</tspan><tspan class="quote">`</tspan></text><text x="494" y="44" font-size="16" dy="65.5" dx="59" class="text" text-anchor="middle"><tspan class="quote">`</tspan><tspan>A</tspan><tspan class="quote">`</tspan><tspan class="quote"> - </tspan><tspan class="quote">`</tspan><tspan>Z</tspan><tspan class="quote">`</tspan></text><text x="494" y="44" font-size="16" dy="86.5" dx="59" class="text" text-anchor="middle"><tspan class="quote">`</tspan><tspan>0</tspan><tspan class="quote">`</tspan><tspan class="quote"> - </tspan><tspan class="quote">`</tspan><tspan>9</tspan><tspan class="quote">`</tspan></text><text x="553" y="44" font-size="12" text-anchor="middle" dy="-6" class="text">One of</text></g></g><g><g><rect x="637" y="75.5" width="34" height="32" class="transparent-fill stroke" rx="5" ry="5"></rect><text x="637" y="75.5" font-size="16" dy="23.5" dx="17" class="text" text-anchor="middle"><tspan class="quote">`</tspan><tspan>.</tspan><tspan class="quote">`</tspan></text></g></g><g><g><rect x="696" y="75.5" width="70" height="32" class="transparent-fill stroke" rx="5" ry="5"></rect><g fill="none" class="thin-stroke" transform="translate(705 111.5)"><path d="M18 1l3 3-3 3"></path><path d="M6 15l-3-3 3-3"></path><path d="M3 9V7a3 3 0 0 13-3h14" stroke-dasharray=""></path><path d="M21 7v2a3 3 0 0 1-3 3H3" stroke-dasharray=""></path></g><text x="696" y="107.5" class="text" font-size="12" dx="37" dy="16" pointer-events="none">2 - 6</text><text x="696" y="75.5" font-size="16" dy="23.5" dx="35" class="text" text-anchor="middle"><tspan class="quote">`</tspan><tspan>a</tspan><tspan class="quote">`</tspan><tspan class="quote"> - </tspan><tspan class="quote">`</tspan><tspan>z</tspan><tspan class="quote">`</tspan></text><text x="731" y="75.5" font-size="12" text-anchor="middle" dy="-6" class="text">One of</text></g></g><g><g><rect x="791" y="75.5" width="127" height="32" class="transparent-fill stroke" rx="5" ry="5"></rect><text x="791" y="75.5" font-size="16" dy="23.5" dx="63.5" class="text" text-anchor="middle"><tspan>WordBoundary</tspan></text></g></g><g><g><rect x="943" y="15" width="202" height="153" class="transparent-fill second-stroke" rx="5" ry="5"></rect><text x="1044" y="15" font-size="12" text-anchor="middle" dy="-6" class="text">Group #2</text></g></g><g><g><rect x="968" y="44" width="152" height="95" class="transparent-fill stroke" rx="5" ry="5"></rect><g fill="none" class="thin-stroke" transform="translate(1017 143)"><path d="M18 1l3 3-3 3"></path><path d="M6 15l-3-3 3-3"></path><path d="M3 9V7a3 3 0 0 13-3h14" stroke-dasharray=""></path><path d="M21 7v2a3 3 0 0 1-3 3H3" stroke-dasharray=""></path></g><text x="968" y="139" class="text" font-size="12" dx="77" dy="16" pointer-events="none">0 - ∞</text><text x="968" y="44" font-size="16" dy="23.5" dx="76" class="text" text-anchor="middle"><tspan class="quote">`</tspan><tspan>-@:%_+.~#()?&amp;/=</tspan><tspan class="quote">`</tspan></text><text x="968" y="44" font-size="16" dy="44.5" dx="76" class="text" text-anchor="middle"><tspan class="quote">`</tspan><tspan>a</tspan><tspan class="quote">`</tspan><tspan class="quote"> - </tspan><tspan class="quote">`</tspan><tspan>z</tspan><tspan class="quote">`</tspan></text><text x="968" y="44" font-size="16" dy="65.5" dx="76" class="text" text-anchor="middle"><tspan class="quote">`</tspan><tspan>A</tspan><tspan class="quote">`</tspan><tspan class="quote"> - </tspan><tspan class="quote">`</tspan><tspan>Z</tspan><tspan class="quote">`</tspan></text><text x="968" y="44" font-size="16" dy="86.5" dx="76" class="text" text-anchor="middle"><tspan class="quote">`</tspan><tspan>0</tspan><tspan class="quote">`</tspan><tspan class="quote"> - </tspan><tspan class="quote">`</tspan><tspan>9</tspan><tspan class="quote">`</tspan></text><text x="1044" y="44" font-size="12" text-anchor="middle" dy="-6" class="text">One of</text></g></g><g><g><rect x="1170" y="75.5" width="82" height="32" class="transparent-fill stroke" rx="5" ry="5"></rect><text x="1170" y="75.5" font-size="16" dy="23.5" dx="41" class="text" text-anchor="middle"><tspan>End with</tspan></text></g></g></svg>