<svg version="1.1" xmlns="http://www.w3.org/2000/svg" width="319" height="70" data-reactroot=""><path d="M5,35L5,35" class="stroke" fill="none"></path><path d="M100,35L125,35" class="stroke" fill="none"></path><path d="M207,35L232,35" class="stroke" fill="none"></path><path d="M314,35L314,35" class="stroke" fill="none"></path><g><g><rect x="5" y="19" width="95" height="32" class="transparent-fill stroke" rx="5" ry="5"></rect><text x="5" y="19" font-size="16" dy="23.5" dx="47.5" class="text" text-anchor="middle"><tspan>Begin with</tspan></text></g></g><g><g><rect x="125" y="19" width="82" height="32" class="transparent-fill stroke" rx="5" ry="5"></rect><g fill="none" class="thin-stroke" transform="translate(139 55)"><path d="M18 1l3 3-3 3"></path><path d="M6 15l-3-3 3-3"></path><path d="M3 9V7a3 3 0 0 13-3h14" stroke-dasharray=""></path><path d="M21 7v2a3 3 0 0 1-3 3H3" stroke-dasharray=""></path></g><text x="125" y="51" class="text" font-size="12" dx="42" dy="16" pointer-events="none">1 - ∞</text><text x="125" y="19" font-size="16" dy="23.5" dx="41" class="text" text-anchor="middle"><tspan>Any digit</tspan></text></g></g><g><g><rect x="232" y="19" width="82" height="32" class="transparent-fill stroke" rx="5" ry="5"></rect><text x="232" y="19" font-size="16" dy="23.5" dx="41" class="text" text-anchor="middle"><tspan>End with</tspan></text></g></g></svg>