<svg version="1.1" xmlns="http://www.w3.org/2000/svg" width="535" height="128" data-reactroot=""><path d="M5,64L5,64" class="stroke" fill="none"></path><path d="M100,64L125,64" class="stroke" fill="none"></path><path d="M207,64L232,64" class="stroke" fill="none"></path><path d="M232,64L257,64" class="stroke" fill="none"></path><path d="M291,64L316,64" class="stroke" fill="none"></path><path d="M398,64L423,64" class="stroke" fill="none"></path><path d="M423,64L448,64" class="stroke" fill="none"></path><path d="M530,64L530,64" class="stroke" fill="none"></path><g><g><rect x="5" y="48" width="95" height="32" class="transparent-fill stroke" rx="5" ry="5"></rect><text x="5" y="48" font-size="16" dy="23.5" dx="47.5" class="text" text-anchor="middle"><tspan>Begin with</tspan></text></g></g><g><g><rect x="125" y="48" width="82" height="32" class="transparent-fill stroke" rx="5" ry="5"></rect><g fill="none" class="thin-stroke" transform="translate(139 84)"><path d="M18 1l3 3-3 3"></path><path d="M6 15l-3-3 3-3"></path><path d="M3 9V7a3 3 0 0 13-3h14" stroke-dasharray=""></path><path d="M21 7v2a3 3 0 0 1-3 3H3" stroke-dasharray=""></path></g><text x="125" y="80" class="text" font-size="12" dx="42" dy="16" pointer-events="none">0 - ∞</text><text x="125" y="48" font-size="16" dy="23.5" dx="41" class="text" text-anchor="middle"><tspan>Any digit</tspan></text></g></g><g><g><rect x="232" y="19" width="191" height="90" class="transparent-fill second-stroke" rx="5" ry="5"></rect><g fill="none" class="thin-stroke" transform="translate(301.5 113)"><path d="M18 1l3 3-3 3"></path><path d="M6 15l-3-3 3-3"></path><path d="M3 9V7a3 3 0 0 13-3h14" stroke-dasharray=""></path><path d="M21 7v2a3 3 0 0 1-3 3H3" stroke-dasharray=""></path></g><text x="232" y="109" class="text" font-size="12" dx="97.5" dy="16" pointer-events="none">0 - 1</text><text x="327.5" y="19" font-size="12" text-anchor="middle" dy="-6" class="text">Group #1</text></g></g><g><g><rect x="257" y="48" width="34" height="32" class="transparent-fill stroke" rx="5" ry="5"></rect><text x="257" y="48" font-size="16" dy="23.5" dx="17" class="text" text-anchor="middle"><tspan class="quote">`</tspan><tspan>.</tspan><tspan class="quote">`</tspan></text></g></g><g><g><rect x="316" y="48" width="82" height="32" class="transparent-fill stroke" rx="5" ry="5"></rect><g fill="none" class="thin-stroke" transform="translate(330 84)"><path d="M18 1l3 3-3 3"></path><path d="M6 15l-3-3 3-3"></path><path d="M3 9V7a3 3 0 0 13-3h14" stroke-dasharray=""></path><path d="M21 7v2a3 3 0 0 1-3 3H3" stroke-dasharray=""></path></g><text x="316" y="80" class="text" font-size="12" dx="42" dy="16" pointer-events="none">1 - ∞</text><text x="316" y="48" font-size="16" dy="23.5" dx="41" class="text" text-anchor="middle"><tspan>Any digit</tspan></text></g></g><g><g><rect x="448" y="48" width="82" height="32" class="transparent-fill stroke" rx="5" ry="5"></rect><text x="448" y="48" font-size="16" dy="23.5" dx="41" class="text" text-anchor="middle"><tspan>End with</tspan></text></g></g></svg>