<svg version="1.1" xmlns="http://www.w3.org/2000/svg" width="605" height="128" data-reactroot=""><path d="M15,64L40,64" class="stroke" fill="none"></path><path d="M135,64L160,64" class="stroke" fill="none"></path><path d="M242,64L267,64" class="stroke" fill="none"></path><path d="M267,64L292,64" class="stroke" fill="none"></path><path d="M326,64L351,64" class="stroke" fill="none"></path><path d="M433,64L458,64" class="stroke" fill="none"></path><path d="M458,64L483,64" class="stroke" fill="none"></path><path d="M565,64L590,64" class="stroke" fill="none"></path><g><g><rect x="5" y="59" width="10" height="10" class="transparent-fill stroke" rx="10" ry="10"></rect></g></g><g><g><rect x="40" y="48" width="95" height="32" class="transparent-fill stroke" rx="5" ry="5"></rect><text x="40" y="48" font-size="16" dy="23.5" dx="47.5" class="text" text-anchor="middle"><tspan>Begin with</tspan></text></g></g><g><g><rect x="160" y="48" width="82" height="32" class="transparent-fill stroke" rx="5" ry="5"></rect><g fill="none" class="thin-stroke" transform="translate(174 84)"><path d="M18 1l3 3-3 3"></path><path d="M6 15l-3-3 3-3"></path><path d="M3 9V7a3 3 0 0 13-3h14" stroke-dasharray=""></path><path d="M21 7v2a3 3 0 0 1-3 3H3" stroke-dasharray=""></path></g><text x="160" y="80" class="text" font-size="12" dx="42" dy="16" pointer-events="none">0 - ∞</text><text x="160" y="48" font-size="16" dy="23.5" dx="41" class="text" text-anchor="middle"><tspan>Any digit</tspan></text></g></g><g><g><rect x="267" y="19" width="191" height="90" class="transparent-fill second-stroke" rx="5" ry="5"></rect><g fill="none" class="thin-stroke" transform="translate(336.5 113)"><path d="M18 1l3 3-3 3"></path><path d="M6 15l-3-3 3-3"></path><path d="M3 9V7a3 3 0 0 13-3h14" stroke-dasharray=""></path><path d="M21 7v2a3 3 0 0 1-3 3H3" stroke-dasharray=""></path></g><text x="267" y="109" class="text" font-size="12" dx="97.5" dy="16" pointer-events="none">0 - 1</text><text x="362.5" y="19" font-size="12" text-anchor="middle" dy="-6" class="text">Group #1</text></g></g><g><g><rect x="292" y="48" width="34" height="32" class="transparent-fill stroke" rx="5" ry="5"></rect><text x="292" y="48" font-size="16" dy="23.5" dx="17" class="text" text-anchor="middle"><tspan class="quote">`</tspan><tspan>.</tspan><tspan class="quote">`</tspan></text></g></g><g><g><rect x="351" y="48" width="82" height="32" class="transparent-fill stroke" rx="5" ry="5"></rect><g fill="none" class="thin-stroke" transform="translate(365 84)"><path d="M18 1l3 3-3 3"></path><path d="M6 15l-3-3 3-3"></path><path d="M3 9V7a3 3 0 0 13-3h14" stroke-dasharray=""></path><path d="M21 7v2a3 3 0 0 1-3 3H3" stroke-dasharray=""></path></g><text x="351" y="80" class="text" font-size="12" dx="42" dy="16" pointer-events="none">1 - ∞</text><text x="351" y="48" font-size="16" dy="23.5" dx="41" class="text" text-anchor="middle"><tspan>Any digit</tspan></text></g></g><g><g><rect x="483" y="48" width="82" height="32" class="transparent-fill stroke" rx="5" ry="5"></rect><text x="483" y="48" font-size="16" dy="23.5" dx="41" class="text" text-anchor="middle"><tspan>End with</tspan></text></g></g><g><g><rect x="590" y="59" width="10" height="10" class="transparent-fill stroke" rx="10" ry="10"></rect></g></g></svg>